<?xml version="1.0" encoding="UTF-8"?> <!-- Generator: Adobe Illustrator 23.0.6, SVG Export Plug-In . SVG Version: 6.00 Build 0) --> <svg xmlns="http://www.w3.org/2000/svg" xmlns:xlink="http://www.w3.org/1999/xlink" version="1.1" id="Layer_1" x="0px" y="0px" viewBox="0 0 150 65" style="enable-background:new 0 0 150 65;" xml:space="preserve"> <style type="text/css"> .st0{fill:#42BFC8;} .st1{fill:url(#SVGID_1_);} .st2{fill:url(#SVGID_2_);} .st3{fill:url(#SVGID_3_);} .st4{fill:url(#SVGID_4_);} .st5{fill:url(#SVGID_5_);} .st6{fill:url(#SVGID_6_);} .st7{fill:url(#SVGID_7_);} .st8{fill:#F49C6B;} </style> <g> <path class="st0" d="M59.62,44.48v-9.94c0-0.88-0.29-1.65-0.87-2.3c-0.58-0.65-1.42-0.98-2.51-0.98c-2.25,0-3.38,1.09-3.38,3.28 v9.94h-1.43v-9.94c0-0.98-0.33-1.75-0.98-2.34c-0.67-0.63-1.48-0.94-2.41-0.94c-0.95,0-1.76,0.3-2.41,0.91 c-0.65,0.58-0.98,1.37-0.98,2.37v9.94h-1.43v-14.4h1.43v1.43c0.7-1.09,1.82-1.64,3.38-1.64c1.86,0,3.23,0.76,4.11,2.27 c0.84-1.51,2.2-2.27,4.08-2.27c1.44,0,2.6,0.41,3.49,1.22c0.88,0.84,1.32,1.99,1.32,3.45v9.94H59.62z"></path> <path class="st0" d="M64.81,27.5c-0.26,0-0.52-0.1-0.8-0.31c-0.21-0.21-0.33-0.49-0.35-0.84c0-0.63,0.38-1.01,1.15-1.15 c0.58,0,0.96,0.38,1.15,1.15C65.96,27.12,65.58,27.5,64.81,27.5z M64.08,44.48v-14.4h1.43v14.4H64.08z"></path> <path class="st0" d="M78.27,44.48v-8.61c0-3.04-1.37-4.57-4.11-4.57c-1.35,0-2.37,0.4-3.07,1.19c-0.72,0.79-1.08,1.87-1.08,3.24 v8.75h-1.43v-14.4h1.43v1.74c0.65-1.28,2.03-1.92,4.15-1.92c1.79,0,3.16,0.51,4.11,1.53c0.95,1.02,1.43,2.45,1.43,4.29v8.75H78.27z "></path> <path class="st0" d="M84.58,36.99c0,1.95,0.52,3.5,1.57,4.64c1.09,1.16,2.59,1.74,4.5,1.74c0.98,0,1.86-0.16,2.65-0.49 c1-0.42,1.89-1.27,2.68-2.54l1.29,0.59c-0.91,1.72-2.3,2.88-4.18,3.49c-0.72,0.23-1.53,0.35-2.44,0.35c-2.16,0-3.94-0.71-5.33-2.13 c-1.42-1.42-2.13-3.2-2.13-5.33c0-2.16,0.7-3.94,2.09-5.33c1.42-1.42,3.21-2.13,5.37-2.13c2.14,0,3.9,0.66,5.3,1.99 c1.42,1.32,2.13,3.04,2.13,5.16H84.58z M94.41,32.42c-1.09-0.79-2.35-1.19-3.77-1.19c-2.98,0-4.93,1.46-5.86,4.39h11.68 C96.24,34.3,95.55,33.23,94.41,32.42z"></path> <path class="st0" d="M111.07,44.48v-8.61c0-3.04-1.37-4.57-4.11-4.57c-1.35,0-2.37,0.4-3.07,1.19c-0.72,0.79-1.08,1.87-1.08,3.24 v8.75h-1.43v-14.4h1.43v1.74c0.65-1.28,2.03-1.92,4.15-1.92c1.79,0,3.16,0.51,4.11,1.53c0.95,1.02,1.43,2.45,1.43,4.29v8.75H111.07 z"></path> <path class="st0" d="M123.9,44.76c-2.14,0-3.92-0.71-5.33-2.13c-1.42-1.42-2.13-3.2-2.13-5.33c0-2.14,0.71-3.92,2.13-5.33 c1.42-1.42,3.2-2.13,5.33-2.13c1.84,0,3.3,0.42,4.39,1.26v1.71l-0.91-0.59l-0.98-0.52c-0.88-0.3-1.72-0.45-2.51-0.45 c-1.79,0-3.24,0.56-4.36,1.67c-1.14,1.14-1.71,2.6-1.71,4.39c0,1.77,0.57,3.22,1.71,4.36c1.14,1.14,2.59,1.71,4.36,1.71 c1.67,0,3.14-0.56,4.39-1.67v1.78C126.99,44.33,125.53,44.76,123.9,44.76z"></path> <path class="st0" d="M130.6,36.99c0,1.95,0.52,3.5,1.57,4.64c1.09,1.16,2.59,1.74,4.5,1.74c0.98,0,1.86-0.16,2.65-0.49 c1-0.42,1.89-1.27,2.68-2.54l1.29,0.59c-0.91,1.72-2.3,2.88-4.18,3.49c-0.72,0.23-1.53,0.35-2.44,0.35c-2.16,0-3.94-0.71-5.33-2.13 c-1.42-1.42-2.13-3.2-2.13-5.33c0-2.16,0.7-3.94,2.09-5.33c1.42-1.42,3.21-2.13,5.37-2.13c2.14,0,3.9,0.66,5.3,1.99 c1.42,1.32,2.13,3.04,2.13,5.16H130.6z M140.43,32.42c-1.09-0.79-2.35-1.19-3.77-1.19c-2.98,0-4.93,1.46-5.86,4.39h11.68 C142.25,34.3,141.57,33.23,140.43,32.42z"></path> </g> <g> <linearGradient id="SVGID_1_" gradientUnits="userSpaceOnUse" x1="43.4055" y1="55.938" x2="47.9844" y2="55.938"> <stop offset="0" style="stop-color:#0D5AA8"></stop> <stop offset="0.8705" style="stop-color:#0B5CA7"></stop> </linearGradient> <path class="st1" d="M47.98,59.11h-4.58v-6.34h4.42v0.46h-3.96v2.34h3.71v0.46h-3.71v2.6h4.12V59.11z"></path> <linearGradient id="SVGID_2_" gradientUnits="userSpaceOnUse" x1="59.7696" y1="55.938" x2="64.7073" y2="55.938"> <stop offset="0" style="stop-color:#0D5AA8"></stop> <stop offset="0.8705" style="stop-color:#0B5CA7"></stop> </linearGradient> <path class="st2" d="M64.71,59.11H64.1l-3.87-5.79v5.79h-0.46v-6.34h0.64l3.84,5.78v-5.78h0.46V59.11z"></path> <linearGradient id="SVGID_3_" gradientUnits="userSpaceOnUse" x1="76.7416" y1="55.938" x2="81.3205" y2="55.938"> <stop offset="0" style="stop-color:#0D5AA8"></stop> <stop offset="0.8705" style="stop-color:#0B5CA7"></stop> </linearGradient> <path class="st3" d="M81.32,59.11h-4.58v-6.34h4.42v0.46H77.2v2.34h3.71v0.46H77.2v2.6h4.12V59.11z"></path> <linearGradient id="SVGID_4_" gradientUnits="userSpaceOnUse" x1="93.1521" y1="55.938" x2="98.2403" y2="55.938"> <stop offset="0" style="stop-color:#0D5AA8"></stop> <stop offset="0.8705" style="stop-color:#0B5CA7"></stop> </linearGradient> <path class="st4" d="M98.24,59.11h-0.51l-0.63-1.68c-0.06-0.16-0.13-0.31-0.21-0.46c-0.08-0.14-0.16-0.27-0.26-0.37 c-0.1-0.11-0.22-0.19-0.34-0.25c-0.13-0.06-0.28-0.09-0.45-0.09h-2.22v2.86h-0.46v-6.34h2.85c0.27,0,0.52,0.02,0.77,0.07 c0.25,0.05,0.47,0.13,0.67,0.26c0.19,0.12,0.35,0.29,0.47,0.51c0.12,0.22,0.17,0.5,0.17,0.84c0,0.21-0.03,0.41-0.08,0.59 c-0.05,0.18-0.13,0.35-0.24,0.49c-0.11,0.14-0.24,0.27-0.41,0.37c-0.16,0.1-0.36,0.18-0.58,0.22c0.12,0.09,0.22,0.18,0.3,0.27 c0.08,0.08,0.14,0.18,0.2,0.27c0.06,0.1,0.11,0.2,0.15,0.32c0.04,0.12,0.1,0.25,0.15,0.4L98.24,59.11z M93.62,55.78h2.2 c0.31,0,0.58-0.02,0.8-0.07c0.22-0.05,0.41-0.12,0.55-0.23c0.14-0.11,0.25-0.24,0.32-0.41c0.07-0.17,0.1-0.38,0.1-0.63 c0-0.44-0.14-0.75-0.41-0.93c-0.28-0.19-0.69-0.28-1.24-0.28h-2.33V55.78z"></path> <linearGradient id="SVGID_5_" gradientUnits="userSpaceOnUse" x1="109.7594" y1="55.938" x2="115.5886" y2="55.938"> <stop offset="0" style="stop-color:#0D5AA8"></stop> <stop offset="0.8705" style="stop-color:#0B5CA7"></stop> </linearGradient> <path class="st5" d="M112.79,59.22c-0.45,0-0.86-0.08-1.24-0.24c-0.37-0.16-0.69-0.38-0.96-0.67c-0.27-0.29-0.47-0.63-0.62-1.04 c-0.14-0.41-0.22-0.86-0.22-1.36c0-0.5,0.07-0.95,0.22-1.35c0.15-0.4,0.35-0.74,0.62-1.03c0.26-0.28,0.58-0.5,0.95-0.65 c0.37-0.15,0.77-0.23,1.22-0.23c0.35,0,0.67,0.04,0.97,0.13c0.3,0.09,0.57,0.21,0.8,0.37c0.24,0.16,0.43,0.35,0.58,0.58 c0.15,0.22,0.26,0.47,0.32,0.75h-0.5c-0.03-0.19-0.11-0.36-0.22-0.52c-0.12-0.16-0.27-0.31-0.46-0.43 c-0.19-0.12-0.41-0.22-0.66-0.3c-0.25-0.07-0.53-0.11-0.83-0.11c-0.37,0-0.71,0.06-1.02,0.18c-0.31,0.12-0.57,0.3-0.8,0.54 c-0.22,0.24-0.39,0.53-0.52,0.88c-0.12,0.35-0.19,0.75-0.19,1.21c0,0.45,0.06,0.85,0.19,1.21c0.12,0.35,0.3,0.65,0.52,0.89 c0.22,0.24,0.49,0.43,0.8,0.55c0.31,0.13,0.65,0.19,1.03,0.19c0.52,0,0.98-0.1,1.37-0.3c0.39-0.2,0.71-0.48,0.98-0.83v-1.14h-1.75 v-0.46h2.21v3.09h-0.27l-0.2-0.85c-0.15,0.18-0.31,0.33-0.49,0.45c-0.18,0.12-0.37,0.22-0.56,0.3c-0.2,0.08-0.41,0.13-0.62,0.16 C113.23,59.21,113.01,59.22,112.79,59.22z"></path> <linearGradient id="SVGID_6_" gradientUnits="userSpaceOnUse" x1="127.6923" y1="55.938" x2="128.1554" y2="55.938"> <stop offset="0" style="stop-color:#0D5AA8"></stop> <stop offset="0.8705" style="stop-color:#0B5CA7"></stop> </linearGradient> <path class="st6" d="M128.16,59.11h-0.46v-6.34h0.46V59.11z"></path> <linearGradient id="SVGID_7_" gradientUnits="userSpaceOnUse" x1="140.4211" y1="55.938" x2="145" y2="55.938"> <stop offset="0" style="stop-color:#0D5AA8"></stop> <stop offset="0.8705" style="stop-color:#0B5CA7"></stop> </linearGradient> <path class="st7" d="M145,59.11h-4.58v-6.34h4.42v0.46h-3.96v2.34h3.71v0.46h-3.71v2.6H145V59.11z"></path> </g> <g> <path class="st8" d="M32.29,57.07c-0.47,0.09-0.93,0.24-1.4,0.31c-2.68,0.39-5.37,0.55-8.07,0.26c-2.44-0.27-4.8-0.76-6.83-2.26 c-0.25-0.19-0.58-0.28-0.92-0.29c-0.64-0.02-0.89,0.31-0.75,0.94c0.22,1,0.95,1.59,1.74,2.05c0.91,0.53,1.93,0.89,2.96,1.15 c2.44,0.62,4.92,0.9,7.96,0.94c0.83,0.03,2.15-0.13,3.47-0.37c0.94-0.17,1.84-0.47,2.61-1.07c0.39-0.3,0.61-0.69,0.4-1.2 C33.23,57,32.77,56.99,32.29,57.07z"></path> <path class="st8" d="M32.48,53.79c-1.95,0.4-3.92,0.68-5.92,0.72c-1.96,0.04-3.92-0.04-5.83-0.48c-1.54-0.35-3.1-0.72-4.39-1.76 c-0.31-0.25-0.7-0.39-1.1-0.45c-0.72-0.11-1,0.23-0.82,0.93c0.11,0.43,0.31,0.81,0.61,1.14c0.85,0.92,1.96,1.38,3.1,1.74 c2.7,0.87,5.48,1.22,8.77,1.2c1.24,0.03,2.93-0.07,4.58-0.57c0.67-0.2,1.27-0.5,1.79-0.96c0.36-0.32,0.47-0.72,0.23-1.13 C33.3,53.79,32.94,53.69,32.48,53.79z"></path> <path class="st8" d="M32.41,50.48c-1.28,0.76-2.71,1.01-4.15,1.13c-1.49,0.12-2.99,0.12-4.47-0.11c-1.67-0.26-3.32-0.59-4.89-1.24 c-1.12-0.46-2.12-1.1-3.1-1.79c-0.61-0.43-1.2-0.1-1.21,0.65c0,0.21,0.02,0.41,0.09,0.62c0.33,0.93,1.11,1.38,1.9,1.8 c1.43,0.76,2.99,1.17,4.58,1.44c1.79,0.31,3.6,0.48,5.43,0.5c1.51,0.01,3.01-0.12,4.49-0.47c0.85-0.2,1.67-0.51,2.34-1.11 c0.37-0.34,0.41-0.93,0.12-1.3C33.19,50.18,32.82,50.23,32.41,50.48z"></path> <path class="st8" d="M26.72,60.97c-2.23-0.15-4.46-0.41-6.68-0.65c-0.19-0.02-0.43-0.02-0.51,0.15c-0.06,0.14,0.08,0.33,0.21,0.44 c1.23,1.06,2.61,1.77,4.26,1.89c0.3-0.03,0.61-0.03,0.9-0.11c0.72-0.2,1.52-0.19,2.13-0.74c0.2-0.18,0.31-0.41,0.24-0.66 C27.2,61.05,26.95,60.98,26.72,60.97z"></path> <path class="st8" d="M12.78,17.38c0,0,6.73,14,33.11,6.44c0,0,0.94-17.79-17.5-21.58c0,0-23.04-3.96-24.92,20.16 c0,0,0.17,8.7,4.82,14.17c0,0,5.26,9.87,7.36,11.1c0,0,8.85,5.82,16.57,1.6c0,0,6.21-5.14,7.22-11.15c0,0,1.01-2.65-1.08-0.92 c0,0,0.08,4.51-5.87,9.92c0,0-7.36,5.29-13.88-1.68c0,0-9.94-9.76-10.88-22.85c0,0-0.74-13.24,14.05-15.94 c0,0,17.56-2.46,15.98,15.37C37.75,22.02,23.16,25.72,12.78,17.38z"></path> </g> </svg> 