<?xml version="1.0" encoding="utf-8"?>
<!-- Generator: Adobe Illustrator 21.0.2, SVG Export Plug-In . SVG Version: 6.00 Build 0)  -->
<svg version="1.1" id="Layer_1" xmlns="http://www.w3.org/2000/svg" xmlns:xlink="http://www.w3.org/1999/xlink" x="0px" y="0px"
	 viewBox="0 0 210 115" style="enable-background:new 0 0 210 115;" xml:space="preserve">
<style type="text/css">
	.st0{fill:none;}
	.st1{fill:#DF0736;}
	.st2{fill:#F2980C;}
	.st3{fill:#DD0837;}
	.st4{fill:#EF8121;}
	.st5{fill:#E1535B;}
	.st6{fill:#F18C14;}
	.st7{fill:#E56345;}
	.st8{fill:#F08819;}
	.st9{fill:#EC772D;}
	.st10{fill:#E86E38;}
	.st11{fill:#E45F4C;}
	.st12{fill:#5A98C7;}
	.st13{fill:#ED8226;}
	.st14{fill:#EC6F2B;}
	.st15{fill:#F8E8D1;}
	.st16{fill:#FEFEFE;}
</style>
<g>
	<path class="st0" d="M108.7,10.6C108.6,10.6,108.6,10.6,108.7,10.6C108.6,10.6,108.6,10.6,108.7,10.6z"/>
	<path class="st0" d="M112.5,12c-0.1-0.1-0.1-0.2-0.2-0.3C112.4,11.8,112.4,11.9,112.5,12z"/>
	<path class="st0" d="M79.6,30.4c0-0.1,0-0.2-0.1-0.3C79.5,30.2,79.6,30.3,79.6,30.4z"/>
	<path class="st0" d="M93.5,18.3L93.5,18.3L93.5,18.3z"/>
	<path class="st0" d="M81.2,29.7c0-0.1,0-0.2,0-0.3C81.2,29.6,81.2,29.6,81.2,29.7L81.2,29.7z"/>
	<path class="st0" d="M117.5,12.9c0-0.3-0.1-0.6,0-0.9l0,0C117.3,12.3,117.5,12.6,117.5,12.9z"/>
	<path class="st0" d="M79.6,30.4c0,0.1,0,0.3,0,0.5c-0.1,0-0.3,0-0.4,0c0.1,0,0.3,0,0.4,0C79.6,30.7,79.6,30.6,79.6,30.4z"/>
	<path class="st0" d="M92.6,19.1c0,0.2-0.1,0.3-0.2,0.4C92.5,19.4,92.6,19.3,92.6,19.1z"/>
	<path class="st0" d="M108.6,10.6c-0.1,0-0.1,0.2-0.1,0.3l0,0C108.5,10.7,108.5,10.5,108.6,10.6z"/>
	<path class="st0" d="M129.6,16.7L129.6,16.7L129.6,16.7z"/>
	<path class="st0" d="M121.8,10.9c0-0.1,0-0.2,0.1-0.3C121.8,10.7,121.8,10.8,121.8,10.9z"/>
	<path class="st0" d="M124,11.4C124,11.5,124,11.5,124,11.4C124,11.5,124,11.5,124,11.4c0-0.2-0.1-0.2-0.2-0.2
		C123.9,11.2,124,11.3,124,11.4z"/>
	<path class="st0" d="M89.4,18.5l-0.1-0.1C89.3,18.4,89.4,18.4,89.4,18.5L89.4,18.5z"/>
	<path class="st0" d="M136.4,22.6c0.1,0,0.2,0,0.2-0.2l0,0C136.6,22.6,136.5,22.6,136.4,22.6z"/>
	<path class="st0" d="M78,22.9v-0.1C77.9,22.8,78,22.8,78,22.9L78,22.9z"/>
	<path class="st0" d="M137.3,22.7l-0.1,0.1C137.2,22.8,137.2,22.8,137.3,22.7L137.3,22.7z"/>
	<path class="st0" d="M140.6,29.5c-0.1,0-0.1,0-0.2-0.1C140.5,29.4,140.5,29.4,140.6,29.5L140.6,29.5z"/>
	<path class="st0" d="M135.9,24.1c0.3,0.1,0.6,0.2,1,0.3C136.6,24.3,136.2,24.2,135.9,24.1z"/>
	<path class="st0" d="M76.5,31.9C76.4,32,76.4,32,76.3,32C76.4,32,76.5,31.9,76.5,31.9z"/>
	<path class="st0" d="M76.6,30.9c-0.1,0-0.2,0.1-0.3,0.1C76.4,31,76.5,30.9,76.6,30.9z"/>
	<path class="st1" d="M58.1,56c0.4-0.1,0.8-0.2,1.2-0.2c4.2-0.6,8.2,0,12.3,0.9c8.6,2,17,4.9,25.4,7.6c8.2,2.6,16.4,5.2,25,6.6
		c5,0.8,10,1.2,15.1,0.3c3.6-0.7,6.8-2.1,9.4-4.7c3.1-3.3,4.6-7.3,5.3-11.7c-0.1,0.1-0.2,0.1-0.2,0.1c-0.2,0.3-0.4,0.7-0.6,1
		c-2,3.4-4.8,5.8-8.6,7.2c-3.8,1.3-7.7,1.3-11.7,0.8c-5.8-0.7-11.3-2.4-16.8-4.2c-7.6-2.5-15.1-5.3-22.9-7.5c-5.9-1.7-11.8-3-18-2.8
		c-6.2,0.1-11.7,2.2-16,6.9C57.4,56.2,57.8,56,58.1,56z"/>
	<path class="st2" d="M150.4,81.3c-0.8,0-1.6,0-2.5,0c-0.7,0-0.9,0.2-0.9,0.9c-0.1,2.5,0,5-0.3,7.7c-0.3-0.3-0.4-0.4-0.5-0.5
		c-1.4-2.4-2.7-4.8-4-7.2c-0.3-0.6-0.7-0.8-1.4-0.8c-1.1,0.1-2.2,0.1-3.2,0c-0.7,0-1,0.2-1,0.9c-0.2,4-0.2,7.9-0.6,11.9
		c-0.1,0.7,0.2,0.8,0.7,0.8c0.8,0,1.5-0.1,2.3,0s1-0.2,1-1c0-2.2,0.1-4.3,0.2-6.5c0-0.2-0.1-0.5,0.2-0.7c1.4,2.4,2.8,4.8,4.2,7.2
		c0.4,0.7,0.8,1,1.6,1c1-0.1,2-0.1,3,0c0.8,0,1.1-0.2,1.1-1c0-4,0.4-8,0.6-12C151.1,81.4,150.9,81.3,150.4,81.3z"/>
	<path class="st3" d="M73.7,82.9c-2.9,2.4-3.4,8.3,0.5,10.8c1.6,1,3.3,1.3,4.9,1.4c1.7,0,3.2-0.2,4.5-0.8c2.5-1.1,3.8-3.1,4.1-5.8
		c0.2-2.6-0.5-4.8-2.8-6.3C81.7,80.2,76.6,80.6,73.7,82.9z M79.5,91.9c-2.3,0-3.8-1.5-3.8-3.7c0-2.4,1.7-4.1,4-4.1
		c2.2,0,3.7,1.5,3.7,3.7C83.5,90.2,81.8,92,79.5,91.9z"/>
	<path class="st2" d="M92.4,11.2c1.4-0.1,2.7,0.2,4.1-0.3c0.6-0.3,1.3,0.3,1.9-0.2c0.1-0.1,0.2,0.2,0.2,0.4c0.1,0.2,0.1,0.4,0.3,0.6
		l0.1,0.1c0.1,0.1,0.2,0.2,0.4,0.2c0-0.2,0.1-0.3,0.2-0.4c0,0,0.1,0,0.2,0c0-0.2,0-0.4,0-0.5c0-0.2,0-0.4,0.2-0.6
		c0.4,0.4,0.4,1.1,0.8,1.4c0.3-0.3,0.2-0.6,0.2-0.8c0-0.3,0-0.6,0.4-0.6s0.3,0.3,0.4,0.6c0,0.2-0.1,0.5,0.2,0.7
		c0.1-1.2,0.7-0.4,1.2-0.4c1.7-0.1,3.4,0.5,5-0.4c0.1-0.1,0.2,0,0.4,0c0-0.1,0.1-0.3,0.1-0.3l0,0c0,0,0,0,0.1,0.1v0.1
		c0.1,0.4,0,0.9,0.1,1.4c0.1,0.9,0.6,1.2,1.3,0.7c0.2-0.2,0.5-0.2,0.7-0.1c0.9,0.3,1.1-0.1,1.1-0.9c0-0.1,0-0.3,0.2-0.4
		c0,0,0.1,0,0.1,0.1c0.1,0.1,0.1,0.2,0.1,0.3s0.1,0.2,0.2,0.3h0.1l0,0l0,0c0-0.3,0.1-0.6,0.1-0.9c0-0.2,0.2-0.5,0.3-0.1
		c0.1,0.7,0.7,1.3,0.3,2.4c0.9-0.7,1.4-0.7,1.9,0c0.3-0.2,0.2-0.4,0.2-0.6c0-0.3,0.1-0.5,0.4-0.6c0.4-0.2,0.4,0.3,0.5,0.4
		c0.1,0.1,0.1,0.1,0.2,0.1c0,0,0.1,0,0.1,0.1l0,0l0,0l0,0l0,0c-0.1-0.4,0.5-0.6,0.5-1c0-0.1,0-0.1,0-0.2c0.2,0,0.2,0.1,0.3,0.3l0,0
		l0,0c0.5,0.1,0.4,0.4,0.4,0.7c0,0.1,0,0.3,0.1,0.4c0.3,0,0.5-0.3,0.6-0.6c0.4-0.8,0.7-0.8,1.2-0.2c0.2,0.2,0.4,0.4,0.6,0.8
		c0.3-1,0.7-1.4,1.4-0.4c0.2,0.3,0.7,0.3,0.9,0c0.3-0.4,0.8-0.2,1-0.4c0.8-0.5,1.5,0,2.3,0.1c1,0.1,1.3-0.4,1-1.2
		c-0.3-0.3-0.6-0.5-1-0.5c-0.3,0.2-0.5,0.1-0.6-0.3l0,0h-0.1c-0.3,0-0.6,0.1-0.7-0.3c-0.8-0.4-1.7-0.8-2.5-1.1
		c-4.1-1.5-8.4-2.3-12.8-2.4c-4-0.1-8,0.4-11.8,1.5c-1.7,0.5-3.4,1-5,1.9c0.2,0,0.4,0,0.6,0c0.3,0,0.7-0.2,0.7,0.2s-0.5,0.4-0.8,0.3
		c-0.4-0.1-0.8-0.1-1.1-0.3c-0.1,0.1-0.3,0.1-0.4,0.2C91.5,11,91.9,11.2,92.4,11.2z M123.5,11.4c0-0.1,0.2-0.1,0.3-0.1
		c0.1,0,0.3,0,0.2,0.2c0,0,0,0.1-0.1,0.1c-0.1,0.1-0.2,0.1-0.3,0.1C123.6,11.6,123.4,11.6,123.5,11.4z M121.8,10.6
		C121.9,10.6,121.9,10.6,121.8,10.6c0.3-0.1,0.3,0.1,0.3,0.2c0,0.1,0,0.3-0.2,0.3s-0.2-0.1-0.2-0.2
		C121.8,10.8,121.8,10.7,121.8,10.6z M118.3,11.2c0.1,0.1,0.2,0.1,0.2,0.2c0,0.2-0.1,0.2-0.2,0.2s-0.2-0.1-0.2-0.2
		C118.1,11.3,118.2,11.3,118.3,11.2z"/>
	<path class="st2" d="M193.9,86.8c-1.2,0-2.4,0-3.5,0c-1.8,0-1.7,0-1.9,1.7c-0.1,0.9,0,1.4,1.1,1.3c0.3,0,0.8-0.1,0.7,0.5
		s0.3,1.4-0.5,1.6c-1.1,0.3-2.3,0.3-3.4-0.1c-1.9-0.8-2.1-2.8-1.4-4.9c0.8-2.4,3.1-3.1,5.5-2.9c0.9,0.1,1.9,0.2,2.8,0.5
		c0.5,0.2,1,0.2,0.8-0.6c-0.1-0.6-0.1-1.2-0.1-1.8c0-0.6-0.2-0.7-0.7-0.8c-2-0.4-3.9-0.4-5.9-0.2c-3.7,0.4-6.6,2.7-7.1,6.6
		c-0.4,2.8,0.7,5.3,2.9,6.5c1.7,0.9,3.5,1.1,5.5,1c1.4,0.1,2.9-0.2,4.3-0.4c0.8-0.1,1.1-0.4,1.1-1.2c0.1-2,0-4.1,0.3-6.1
		C194.6,86.9,194.4,86.8,193.9,86.8z"/>
	<path class="st3" d="M37.7,87.4c0-0.4-0.1-0.5-0.5-0.5c-1.6,0-3.3,0-4.9,0c-0.5,0-0.5,0.3-0.5,0.7c0.1,0.8-0.5,1.6,0.2,2.3
		c0.1,0.1,0.2,0,0.3,0c1.1-0.2,1.3,0.3,1.2,1.3c-0.1,0.7-0.3,1-1,1c-0.6,0-1.1,0.1-1.7,0c-1.8-0.2-2.9-1.3-3-3.1
		c-0.2-2.9,1.7-5,4.6-5.1c1.6-0.1,3.1,0.2,4.7,0.7c0-0.9,0-1.8,0-2.6c0-0.5-0.1-0.6-0.6-0.7c-1.8-0.3-3.7-0.5-5.5-0.3
		c-4.3,0.4-7,2.9-7.5,6.6c-0.4,3.4,1.2,6.1,4.2,7s6,0.5,9,0c0.4-0.1,0.5-0.3,0.5-0.7C37.4,91.7,37.5,89.6,37.7,87.4z"/>
	<path class="st3" d="M14.2,86.8c-1,0-2.1,0-3.1,0c-2,0-2,0-2.2,2c-0.1,0.8,0.1,1.1,0.9,1c0.3,0,0.7-0.2,0.9,0.3
		c0.3,1.3-0.2,2-1.5,2c-0.4,0-0.7,0-1.1,0c-1.9-0.2-3-1.3-3.1-3.2c-0.1-2.9,1.8-4.9,4.7-5c1.6-0.1,3.1,0.3,4.6,0.7
		c0-0.9,0-1.8,0-2.6c0-0.5-0.2-0.6-0.7-0.7c-1.8-0.3-3.5-0.4-5.3-0.3c-4.2,0.3-7,2.6-7.6,6.3c-0.6,3.4,1,6.3,4.1,7.3
		c3,1,6.1,0.6,9.1,0.1c0.5-0.1,0.5-0.4,0.5-0.8c0.1-2.1,0.2-4.2,0.4-6.3C14.8,87,14.7,86.8,14.2,86.8z"/>
	<path class="st2" d="M170.9,84.8c0-0.3,0-0.8,0.5-0.7c0.7,0,1.4,0,2.1,0c0.7,0.1,1.4,0.4,1.4,1.2c0.1,0.9-0.4,1.5-1.2,1.8
		c-0.5,0.2-1.1,0.4-1.6,0.2c-0.7-0.2-0.7,0-0.5,0.6c0.8,2.1,1.6,4.2,2.2,6.4c0.1,0.5,0.4,0.6,0.8,0.6c1.1,0,2.2,0,3.3,0
		c0.6,0,0.7-0.1,0.4-0.7c-0.6-1.1-1.1-2.3-1.6-3.4c-0.7-1.6-0.7-1.6,0.7-2.5c0.1,0,0.1-0.1,0.2-0.1c1.3-0.9,1.7-2.2,1.6-3.7
		c-0.1-1.5-1-2.5-2.5-2.9c-1.7-0.5-3.4-0.2-4.6-0.3c-1.8,0-3.1,0-4.4,0c-0.5,0-0.7,0.1-0.7,0.7c-0.2,4.1,0,8.2-0.6,12.3
		c-0.1,0.5,0.1,0.7,0.6,0.7c0.8,0,1.6-0.1,2.5,0c1,0.1,1.2-0.2,1.2-1.2C170.6,90.8,170.5,87.8,170.9,84.8z"/>
	<path class="st3" d="M55.1,94.9c0-0.1,0-0.1,0-0.2c-1.6-4.3-3.2-8.7-4.7-13c-0.1-0.2-0.2-0.4-0.5-0.4c-1.6,0-3.2-0.3-4.7,0.1
		c-0.9,0.3-1,1.8-1.6,2.8c0,0.1-0.1,0.1-0.1,0.2c-1.8,3.4-3.7,6.9-5.6,10.5c1.3,0,2.5-0.1,3.6,0c0.8,0.1,1.2-0.2,1.5-1
		s0.7-1.5,1.1-2.2c0.2-0.4,0.5-0.6,0.9-0.6c1.3,0,2.6,0,3.8,0c0.5,0,0.8,0.2,0.9,0.7c0.3,0.8,0.6,1.7,0.8,2.5
		c0.1,0.3,0.2,0.6,0.7,0.6C52.5,94.9,53.8,94.9,55.1,94.9z M48.1,88.2c-0.8,0-1.6,0-2.5,0c0.6-1.4,1.2-2.6,1.9-3.9
		c0.4,1.2,0.7,2.3,1.1,3.4C48.8,88.2,48.5,88.2,48.1,88.2z"/>
	<path class="st2" d="M133.9,94.1c0-0.7,0.1-1.4,0.1-2.2c-0.9-0.2-1.8,0.1-2.8-0.1c-0.1,0-0.3,0-0.4,0c-0.3,0-0.7,0-1,0
		s-0.6,0-0.9,0c-1.8,0-1.8,0-1.7-1.9c0-0.6,0.2-0.7,0.8-0.7c0.9,0,1.9,0,2.9,0c2.3,0,2.3,0,2.3-2.3c0-0.5-0.2-0.7-0.7-0.7
		c-1.4,0-2.8,0-4.1,0c-0.5,0-1-0.1-0.8-0.7c0.1-0.6-0.4-1.5,0.8-1.5c1.2,0,2.5,0,3.7,0c2.3,0,2.3,0,2.2-2.3c0-0.5-0.1-0.7-0.7-0.7
		c-3.2,0-6.5,0-9.7,0c-0.5,0-0.7,0.1-0.7,0.7c-0.1,4-0.2,8.1-0.7,12.1c-0.1,0.6,0.1,0.9,0.8,0.9c3.2,0,6.4,0,9.6,0
		C133.6,94.9,133.8,94.6,133.9,94.1z"/>
	<path class="st2" d="M163.2,91.8c-1.5,0.2-3,0.2-4.5,0.1c-1.5,0-1.3,0.3-1.3-1.3c0-0.1,0-0.3,0-0.4c-0.1-0.7,0.3-0.9,1-0.9
		c0.9,0,1.7,0,2.6,0c2.2,0,2.2,0,2.4-2.2c0-0.6-0.1-0.8-0.7-0.8c-1.3,0-2.7,0-4,0c-0.4,0-1,0.2-0.9-0.6c0.1-0.6-0.3-1.6,0.9-1.5
		c1.3,0,2.6,0,3.8,0c2.1,0,2.1,0,2.2-2.2c0-0.6-0.1-0.8-0.7-0.8c-1.6,0-3.2,0-4.8,0s-3.2,0-4.8,0c-0.5,0-0.8,0.1-0.8,0.7
		c-0.1,4-0.2,8-0.6,12c-0.1,0.7,0.1,1,0.9,1c2.6,0,5.2,0,7.9,0c2.3,0,2.3,0,2.5-2.3C164.1,91.8,163.9,91.7,163.2,91.8z"/>
	<path class="st3" d="M64.2,94.9c0.4,0,0.6-0.1,0.8-0.5c1.8-3.7,3.6-7.4,5.6-10.9c0.4-0.7,0.7-1.4,1-2.1c-1.4,0-2.6,0-3.9,0
		c-0.5,0-0.6,0.3-0.8,0.7c-1.4,3-2.8,6.1-4.3,9.3c-0.2-0.4-0.3-0.6-0.3-0.8c-0.9-2.8-1.7-5.6-2.6-8.4c-0.1-0.3-0.1-0.7-0.6-0.7
		c-1.3,0-2.6,0-3.9,0c1.5,4.5,3.1,8.8,4.5,13.1c0.1,0.4,0.3,0.5,0.7,0.5C61.7,94.9,63,94.9,64.2,94.9z"/>
	<path class="st4" d="M133.9,17c-0.1,0.1-0.2,0.1-0.4,0c-0.2,0-0.4-0.1-0.7-0.2c0.3,0.9-0.2,0.9-0.8,0.9c-0.5,0-0.9-0.1-1.4,0
		c-0.1,0-0.2,0-0.3,0s-0.3,0-0.4-0.1c0,0-0.1,0-0.1-0.1c-0.1-0.1-0.2-0.1-0.2-0.3c-0.1-0.2-0.1-0.4,0-0.6l0,0c-0.7,0-1,0.3-1.2,0.9
		c-0.1,0.3-0.4,0.7-0.8,0.7c-0.3,0-0.4-0.2-0.4-0.4c0-0.1,0-0.2,0-0.2v-0.1c-0.6,0.4-1.1,0.5-1.3-0.5c0-0.3-0.3-0.5-0.5-0.7
		c-0.1-0.1-0.4-0.2-0.2-0.3c0.2-0.2,0.6-0.3,0.2-0.5c-0.3-0.2-0.5,0.1-0.7,0.4c-0.1,0.1-0.1,0.1-0.2,0.2c-0.1,0.1-0.1,0.2-0.1,0.4
		c0.6-0.1,0.4,0.4,0.3,0.5c-0.2,0.6-0.3,1.2-0.8,1.7c-0.7,1.8-1.3,3.6-2,5.4c0,0.3-0.2,0.6,0.1,0.8c0.3,0.1,0.4-0.4,0.6-0.4
		c0.7,0,1.1-0.4,1.6-0.7c0.8-1,1.6-2.1,2.4-3.1c0.6-0.9,1.1-1.7,1.7-2.6c0.1,0,0.2,0.1,0.2,0.1c-0.3,1.1-0.9,2.1-1.5,3.1
		c-0.3,0.6-0.6,1.3-0.8,1.9c0.2,0.2,0.4,0.4,0.5,0.6c0.5,0.8,1.1,1,1.9,0.5c0.4-0.4,0.8-0.8,1.2-1.2c0.7-0.9,1.4-1.9,2.4-2.5
		c0,0.7-0.7,1.1-0.8,1.7c0.1,0.2,0.2,0.5,0.5,0.6c1.1,0.2,1.1,0.2,1.3,1c0.2-0.6,0.4-0.8,0.6-0.8c0.1,0,0.1,0.1,0.2,0.1
		c0.1,0.1,0.2,0.2,0.2,0.3c0.1,0.1,0.1,0.1,0.2,0.2l0.1,0.1c0.1,0.1,0.1,0.1,0.2,0.1c0.3-0.2,0.6-0.5,0.9-0.7c0.3-0.2,0.3,0,0.3,0.2
		l0,0c0,0.2,0,0.3-0.2,0.4c-0.1,0-0.1,0-0.2,0l0,0c0.1,0.1,0.3,0.2,0.4,0.2c0.3,0.1,0.6,0.2,1,0.3c0.2,0,0.3,0,0.5,0
		c0.9,0,1.8-0.3,2.3-0.9c0,0,0.1,0,0.2,0l0,0l0,0c0-0.1,0-0.3,0.2-0.3c0,0,0.1,0,0.1,0.1c0,0.2-0.2,0.2-0.3,0.2l0,0
		c-0.1,0.6,0.4,0.7,0.8,0.7c0.6,0,0.2-0.6,0.4-0.9c0-0.3-0.3-0.4-0.4-0.6c-0.2,0-0.3-0.1-0.4-0.4c-1.7-2.3-3.6-4.4-5.9-6.2l0,0
		c-0.1,0.3-0.1,0.4-0.2,0.6C134.1,16.9,134,17,133.9,17z M132.4,20.5L132.4,20.5L132.4,20.5L132.4,20.5z M137.3,22.7L137.3,22.7
		L137.3,22.7c0,0,0.1,0,0.1,0.1l0,0c0,0,0,0.1-0.1,0.2c-0.1,0-0.1,0-0.2-0.1l0,0C137.2,22.8,137.2,22.8,137.3,22.7z M136.3,22.3
		C136.4,22.3,136.4,22.3,136.3,22.3c0.2,0,0.3,0.1,0.3,0.2l0,0l0,0c0,0.1-0.1,0.2-0.2,0.2h-0.1c-0.1,0-0.3,0-0.3-0.2
		C136.1,22.3,136.2,22.3,136.3,22.3z"/>
	<path class="st2" d="M205.8,81.3c-0.7,0-1,0.2-1.3,0.8c-0.7,1.3-1.5,2.5-2.3,3.9c-0.5-1-0.9-1.8-1.2-2.6c-1-2.1-1-2.1-3.2-2.1
		c-0.5,0-1.1,0-1.6,0c-0.8-0.1-0.9,0.1-0.5,0.8c1,1.6,1.7,3.3,2.8,4.8c1.3,1.8,1.6,3.8,1.2,5.9c-0.1,0.6-0.2,1.5-0.2,2.1
		c1.3,0.3,2.5,0,3.8,0.1c0.5,0,0.6-0.6,0.6-0.9c0-1.1,0-2.2,0.1-3.3c0-0.4,0-0.8,0.3-1.1c1.8-2.7,3.6-5.5,5.5-8.3
		C208.2,81.3,207,81.4,205.8,81.3z"/>
	<path class="st3" d="M112.7,81.3c-1.8,0-3.7,0-5.5,0c-1.3,0-2.7,0-4,0c-2.5,0-2.5,0-2.5,2.5c0,0.6,0.2,0.7,0.7,0.7
		c0.8-0.1,1.6-0.1,2.5-0.2c0.8-0.1,1.1,0.1,1,1c-0.1,3-0.2,5.9-0.5,8.8c-0.1,0.7,0.1,0.8,0.8,0.8c0.9-0.1,1.8-0.1,2.8,0
		c0.7,0,0.8-0.2,0.8-0.8c0-2.6,0.1-5.2,0.3-7.9c0.1-2,0.2-1.9,2.2-2c0.7,0,1.7,0.6,2.1,0c0.4-0.5,0.1-1.5,0.2-2.2
		C113.6,81.3,113.3,81.3,112.7,81.3z"/>
	<path class="st5" d="M147.8,45.6c-0.2,0-0.4,0.1-0.6,0.3c0.1,0,0.3,0.1,0.7,0.1c-0.6,0.2-1,0.4-1.5,0.3c-0.3,0.1-0.6,0.1-1,0.2
		c-0.1,0-0.3,0.1-0.4,0.1c-4.2,0.9-8.4,1.8-12.6,2.7c5.2,0.5,10.3,0.6,15.4,1.1c-5.1,0.5-10.2,1-15.3,1.5c0,0.1,0,0.2,0,0.3
		c4.7,0.7,9.5,1.5,14.2,2.2c0.6,0.1,0.9,0,1.2-0.6c1.5-2.6,1.1-5.4,0.9-8.1c-0.1,0-0.2-0.1-0.3-0.1s-0.2,0-0.3,0
		C148.1,45.5,148,45.5,147.8,45.6z"/>
	<path class="st6" d="M125.9,12.4c-0.8-0.1-1.4-0.6-2.3-0.1c-0.2,0.1-0.7,0-1,0.4c-0.2,0.2-0.7,0.3-0.9,0c-0.7-1-1.1-0.6-1.4,0.4
		c-0.3-0.4-0.4-0.6-0.6-0.8c-0.6-0.6-0.9-0.6-1.2,0.2c-0.1,0.3-0.3,0.6-0.6,0.6c-0.1-0.1-0.1-0.2-0.1-0.4c0-0.3,0.1-0.6-0.4-0.7l0,0
		c-0.1,0.3,0,0.6,0,0.9c0,0.2-0.1,0.5-0.4,0.6c0,0.4,0,0.7-0.1,1.1c0,0.2,0,0.5,0,0.7c0,0.1,0,0.3-0.1,0.4c-0.1,0.1-0.1,0.2-0.3,0.3
		c0,0.2,0,0.4,0,0.6c0.4,0.5,0.8,1,1.6,0.8l0,0l0,0c0-0.2-0.1-0.5,0.3-0.7c0.2,0.4,0.2,0.6-0.3,0.7l0,0l0,0c0,0.2,0,0.4,0.1,0.6
		s0.3,0.4,0.5,0.3s0.2-0.3,0.2-0.5c0-0.5-0.2-1.2,0.7-0.8c0-0.1,0-0.3,0.1-0.4c-0.1,0-0.1,0-0.2,0c0,0-0.1,0-0.1-0.1
		c-0.1-0.1-0.1-0.2-0.1-0.4c0.1-0.4,0.5-0.2,0.7-0.3c0.2-0.4,0.4-0.8,0.7-1.3c0.2,0.5,0.1,0.9,0.1,1.2c0,0.6,0,1.2,0,1.7
		c0,0.6-0.3,0.7-0.8,0.7c0,0.1,0,0.2,0,0.4c0.5,0.3,1.1,0.6,1.2-0.4c0-0.2,0.1-0.4,0.4-0.4s0.5,0.2,0.6,0.5c0.2,0.6,0.6,0.7,1,0.3
		c0.1-0.2,0.3-0.4,0.4-0.6c0.1-0.6,0.7-1,0.8-1.7c0-0.2,0-0.3,0.1-0.4c0.1-0.1,0.1-0.1,0.2-0.2c0.2-0.2,0.5-0.5,0.7-0.4
		c0.4,0.3-0.1,0.4-0.2,0.5c-0.2,0.2,0.1,0.2,0.2,0.3c0.2,0.2,0.5,0.4,0.5,0.7c0.2,1,0.6,0.9,1.3,0.5v0.1c0,0.1,0,0.2,0,0.2
		c0,0.2,0.1,0.4,0.4,0.4c0.4,0,0.7-0.3,0.8-0.7c0.2-0.6,0.6-0.9,1.2-0.9c0-0.2,0.1-0.4,0.3-0.3c0.1,0,0.2,0.1,0.1,0.2
		c-0.1,0.2-0.3,0.1-0.5,0.2l0,0c0,0.3,0,0.5,0,0.6s0.1,0.2,0.2,0.3c0,0,0.1,0,0.1,0.1c0.1,0,0.2,0.1,0.4,0.1c0.1,0,0.2,0,0.3,0
		c0.5-0.1,0.9,0,1.4,0c0.6,0,1.1,0,0.8-0.9c0.3,0.1,0.5,0.2,0.7,0.2s0.3,0,0.4,0c0.1-0.1,0.2-0.1,0.3-0.3c0.1-0.1,0.1-0.3,0.2-0.6
		c-0.4-0.4-0.9-0.6-1.3-1c-1.8-1.6-3.9-3-6.2-3.9C127.2,12,126.9,12.4,125.9,12.4z M122.7,18.2c-0.2,0-0.2-0.2-0.2-0.3
		c0-0.3,0.2-0.4,0.4-0.4c0.1,0,0.2,0.1,0.2,0.2C123.1,17.9,123,18.2,122.7,18.2z M127.3,17.5c0-0.1,0-0.3,0.2-0.3c0,0,0.1,0,0.1,0.1
		C127.6,17.5,127.4,17.5,127.3,17.5L127.3,17.5L127.3,17.5L127.3,17.5z"/>
	<path class="st7" d="M146.9,35.4c0.2,0.3,0.6,1.1-0.5,1.1c-0.2,0-0.1,0.4-0.4,0.4c-0.2-0.5-0.4-1-0.7-1.8c-0.4,1.1-1.4,1-2.2,1.3
		c-0.9,0.3-1.7-0.3-2.6-0.1c0.1-0.5,0.7-0.7,0.7-1.1c-3.5,2-6.9,4.1-10.6,6.3c1.2,0,2-0.4,2.9-0.6c3-0.8,5.9-1.7,8.8-2.5
		c1-0.4,2.1-0.7,3.3-0.8c-0.8,0.4-1.6,0.7-2.4,1.1c-3.5,1.6-7,3.3-10.5,4.9c0.2,0.7,0.8,0.2,1.1,0.3c1-0.2,1.9-0.4,2.9-0.5
		c2.8-0.5,5.6-1,8.4-1.4c0.6-0.3,1.2-0.3,1.8-0.4c0.1,0,0.3-0.1,0.2,0.2c0,0.1-0.2,0.1-0.2,0.2l0,0l0,0c0.5,0.6,0.2,0.7-0.1,0.8
		c-0.2,0-0.3,0.1-0.4,0.2c-0.7,0.5-0.6-0.2-0.7-0.5c-0.1,0-0.1,0-0.2,0c-0.1,0-0.1,0.1-0.2,0.1c-0.1,0.5-0.5,0.3-0.8,0.3
		c-0.2,0-0.3,0.1-0.5,0.1c1.9,1,3.3,0.9,4.5-0.4c0.2-0.3,0.4-0.5,0.4-0.9c-0.3-2.7-0.9-5.4-2-7.9c0,0.3,0,0.6,0,0.8
		c0,0.1,0,0.2,0,0.3C146.6,35,146.7,35.2,146.9,35.4z M145.9,37.4C145.9,37.4,145.8,37.3,145.9,37.4c0-0.1,0-0.1,0.1-0.1
		c0,0,0,0,0.1,0.1C146,37.3,145.9,37.4,145.9,37.4z"/>
	<path class="st1" d="M91.5,94.7c2.4,0,4.9,0,7.3,0c0.7,0,1-0.2,0.9-0.9c-0.1-0.6,0-1.2,0-1.9c-1.7,0-3.3-0.1-5,0
		c-0.8,0-0.9-0.2-0.9-0.9c0.2-3,0.4-6,0.5-8.9c0-0.4,0.2-0.8-0.5-0.8c-1.1,0-2.2,0-3.3,0c-0.5,0-0.5,0.2-0.5,0.6
		c0,3.6-0.3,7.1-0.5,10.7C89.4,94.7,89.4,94.7,91.5,94.7z"/>
	<path class="st7" d="M68.6,43.1c0.3,0,0.4-0.3,0.4-0.6c0-0.2,0.1-0.4,0.2-0.6c0.2-0.2,0.4-0.4,0.8-0.4l0,0c0.9,0,1.7,0,2.5,0.4
		c1.8,0.3,3.5,0.6,5.3,0.9c2.2,0.4,4.3,0.8,6.5,1.2c0.2,0,0.3,0.1,0.4-0.1c0.1-0.2,0-0.3-0.2-0.4c-0.2-0.1-0.5-0.2-0.7-0.3
		c-3.3-1.5-6.5-3-9.8-4.5c-1.1-0.5-2.4-0.7-3.3-1.5c1.4,0.3,2.8,0.6,4.2,1.2c0.7,0.2,1.4,0.4,2.2,0.6c2.5,0.7,5,1.4,7.5,2.2
		c0.3,0,0.5,0,0.6-0.3c-2.2-1.3-4.3-2.7-6.5-4c-0.7-0.4-1.4-0.8-2.2-1.2v0.1l0,0c0,0.1,0,0.2,0,0.3c0,0.2-0.1,0.3-0.6,0.1
		c-1.1-0.4-2.2,0.2-3.3,0.5c-0.5,0.1-0.7,0.5-0.6-0.4c0-0.2-0.6-0.7-1.2-0.4c-0.4,0.2-0.9,0.8-1.4,0c-0.6,1.8-1.1,3.6-1.2,5.5
		c0,0.4,0,0.7,0,1.1C68.2,42.7,68.1,43.1,68.6,43.1z"/>
	<path class="st8" d="M80,18.3c0,0.6,0,0.9,0.2,1h0.1h0.1h0.1c0.2,0,0.4-0.1,0.6-0.1c0.3-0.1,0.6,0,0.9-0.1c0-0.2-0.1-0.5,0.2-0.7
		c0.3,0.2,0.1,0.5,0.2,0.7c0.9-0.3,1.9-0.5,2.8,0.2c0.2,0.2,0.9-0.3,0.8,0.6c-0.1,0-0.3,0-0.3,0.2c0,0,0,0.1,0.1,0.1
		c0.2,0,0.2-0.2,0.2-0.3c0.2,0,0.4-0.1,0.4-0.4c0-0.2,0.1-0.4,0.2-0.4s0.2,0.1,0.3,0.1c0.2,0.1,0.3,0.1,0.4,0.1l0,0
		c0.1,0,0.2-0.1,0.3-0.1c0.2-0.1,0.3-0.3,0.4-0.6l0,0l0,0c-0.2-0.4-0.3-0.9-0.5-1.3c0.5,0.5,1.1,1.1,1.4,1.8c0.1,0,0.1,0,0.1,0
		c0.4,0.1,1,0.9,1.3-0.2c0.1-0.3,0.6-0.2,0.7,0.2c0.2,0.5,0.7,0.6,1.1,0.6c0.1,0,0.2,0,0.2-0.1l0.1-0.1c0.1-0.1,0.2-0.3,0.2-0.4
		s0-0.2,0-0.3l0,0l0,0c-0.4-1.2-0.8-2.3-1.2-3.5c0.1,0,0.1,0,0.2-0.1c0.6,1,1.2,2,1.8,3.1c0,0,0,0,0.1,0l0,0c0,0,0,0,0.1,0
		c0,0,0.1,0,0.1-0.1c0.2-0.1,0.3-0.1,0.4,0c0.2,0.3-0.3,0.4-0.3,0.7c0,0.1,0,0.1,0.1,0.1s0.1,0,0.1,0c0.1,0,0.1,0.1,0.2,0.1
		c0,0,0.1,0.1,0.1,0.2v0.1v0.1v0.1c0,0.1,0.1,0.1,0.1,0.2l0,0l0,0c0.2,0,0.3,0.1,0.3,0.2v0.1l0,0c0.4-0.1,0.9,0,0.8-0.7
		c0-0.4,0-0.7,0.6-0.7c0.3,0,0.6-0.4,0.6-0.9c0-0.2,0-0.4,0-0.6c-0.5-0.9-0.6-1.9-0.8-2.9c-0.1-0.6,0.3,0,0.4,0l0,0
		c0.1-0.2,0.1-0.3,0.2-0.5c0-0.1,0-0.3,0-0.4c0-0.3-0.2-0.5-0.6-0.7c-0.2-0.1-0.5-0.2-0.7,0c-0.1,0.2-0.1,0.5,0.1,0.6
		c0.4,0.2,0.2,0.4,0.2,0.7c-0.1,0.3-0.1,0.7-0.5,0.7c-0.4-0.1-0.2-0.5-0.3-0.7c0-0.2,0-0.3-0.1-0.7c-0.5,1-0.9,1.1-1.2,0.1
		c-0.3,0.4-0.2,0.6,0,0.8s0.2,0.5-0.1,0.7c-0.3,0.1-0.5,0-0.5-0.3c0-0.8-0.3-0.5-0.7-0.2c-0.3,0.2-1-0.2-1.1,0.6
		c-0.6-0.3-1.1-0.6-1.7-0.1c-0.3-1-0.9-0.4-1.4-0.3c-1,0.3-1.7-0.1-2.2-0.9c-1.9,1.2-3.6,2.5-5.1,4.1C80.4,18.2,80.3,18.3,80,18.3z
		 M94.7,18.2c0.3,0.5,0.3,0.8,0.1,1.2C94.4,19.1,94.6,18.8,94.7,18.2z M89.2,18.4C89.2,18.4,89.3,18.4,89.2,18.4
		c0.1,0,0.1,0,0.2,0.1l0,0l0,0c0,0.1,0,0.1-0.1,0.2c0,0-0.1,0-0.2-0.1C89.2,18.5,89.2,18.4,89.2,18.4z"/>
	<path class="st9" d="M72.4,31.2c0.2-0.2,1,0,1.4,0.4c0.5,0.4,1,0.8,1.6,0.2c0.1-0.1,0.3-0.1,0.4-0.1c0.2,0.2,0.4,0.3,0.6,0.3
		c0.1,0,0.2,0,0.2-0.1l0,0c0.1-0.1,0.1-0.2,0.2-0.3l0,0c0-0.1,0.1-0.2,0.1-0.3c0-0.1,0.1-0.2,0.1-0.2c-0.1,0-0.1-0.1-0.2-0.1l0,0
		h-0.1c-0.1,0-0.2,0.1-0.3,0.1c0,0-0.1,0-0.1,0.1c-0.1,0.1-0.2,0.1-0.3,0.1c-0.6,0.2-0.9-0.1-1-0.7c-0.2-0.1-0.5,0.1-0.7-0.3
		c0.4-0.2,0.6-0.2,0.7,0.3c0.3,0,0.7,0,1-0.2c0-0.1,0-0.1,0-0.2l0,0c0-0.1,0.1-0.1,0.1-0.2c0,0,0-0.1,0.1-0.1l0.1-0.1
		c0.1,0,0.2,0.1,0.2,0.3c0.8,0.4,1.5,0.9,2.3,1.2c0.3,0,0.4-0.1,0.5-0.4l0,0l0,0c-0.1,0-0.3,0-0.3-0.2c0,0,0-0.1,0.1-0.1
		c0.2,0,0.2,0.2,0.2,0.3l0,0l0,0c0.1,0,0.3,0,0.4,0c0-0.2,0-0.3,0-0.5c0-0.1,0-0.2-0.1-0.3c0,0,0-0.1-0.1-0.1c0-0.1-0.1-0.1-0.1-0.2
		c-0.3-0.2-0.7,0-1.5,0.6c-0.3-1,0-1.4,1.1-1.1c0.3,0.1,0.6,0.2,0.8,0.3c0.5,0.2,0.9,0.3,1.5,0.2c0-0.1,0-0.2,0-0.3
		c-0.3-0.3-0.5-0.6-0.8-0.9c-0.8-0.5-1.3-1.2-2-1.9c0.5-0.3,0.7,0.3,1,0.3c0.5-0.4,0.9-0.8,1.4,0.1c0.2,0.4,0.7,0.7,1.3,0.4
		c0.4-0.2,0.8-0.1,1.2-0.1c0.4,0,0.6-0.1,0.6-0.6c0-0.1-0.1-0.2-0.2-0.2c-0.5,0-0.6-0.2-0.6-0.6c0-0.1-0.1-0.1-0.1-0.2
		c-0.2,0-0.3-0.1-0.3-0.3c-0.1-0.2-0.3-0.4-0.4-0.7c-0.5-0.5-1-1-1.3-1.5c-0.3-0.4,0.2-0.1,0.3-0.2c0.1-0.3,0-0.6-0.2-0.7
		c0,0-0.1,0-0.1-0.1c-0.3-0.1-0.5,0.2-0.8,0.3c-0.8,0.3-1.7,0.7-2.6,0.8c-0.6,0.1-0.9-0.6-1.2-1.1c0.4,0,0.4-0.3,0.4-0.6
		c-0.2,0.1-0.4,0.3-0.4,0.6l0,0l0,0c-1.9,2.1-3.4,4.5-4.5,7.1c0.1,0.5,0.6,1.3-0.6,1.2c0,0-0.1,0.1,0,0.1
		C71.5,31.1,71.3,32.1,72.4,31.2z"/>
	<path class="st9" d="M140.7,24.1c-0.4,0-0.9-0.1-0.8-0.7c-0.1,0-0.1,0-0.2,0c-0.5,0.6-1.4,0.9-2.3,0.9c-0.2,0-0.3,0-0.5,0
		c-0.3,0-0.7-0.1-1-0.3c-0.1-0.1-0.3-0.2-0.4-0.2c-0.4,0.4-0.8,0.8-1.2,1.2c-1.3,1.6-2.6,3.3-4,4.9c0.5,1,1.3,0.9,2.2,0.6
		c1.4-0.9,2.7-1.8,4.1-2.8c0.4-0.5,1.1-0.8,1.6-1.1c-0.2,0.7-0.7,1-1.2,1.4c-0.1,0.2-0.3,0.4-0.4,0.6c0,0.3-0.2,0.4-0.4,0.4
		c0.1,0.3-0.1,0.6,0.3,0.8c0.4,0.1,0.4-0.3,0.6-0.5c0.5-0.7,1,0.1,1.1,0.3c0.5,0.9,0.7,0.4,1-0.2c0,0.3,0,0.4,0,0.6
		c0,0.1,0.1,0.1,0.1,0.1c0.1,0.1,0.1,0.1,0.2,0.1l0,0c0.2,0,0.4,0,0.6,0l0,0l0,0c0.5-0.2,1-0.5,1.5-0.7h0.1c0.1,0.1,0,0.2-0.1,0.2
		c0,0.1,0,0.2,0,0.3v0.1c-0.1,0.2-0.2,0.4-0.5,0.5c-0.1,0.1-0.3,0.3-0.2,0.5s0.4,0.1,0.5,0c0.4-0.3,1-0.2,1.1-0.8
		c0.4,0.3,0.2,0.6,0.2,0.9c0,0.2-0.1,0.6,0.3,0.6c0.3,0,0.4-0.2,0.5-0.5c0-0.3-0.1-0.7,0.1-1c0.4,0,0.5,0.8,0.9,0.5
		c0.3-0.2,0.1-0.6,0.2-0.9c0-0.1,0-0.1,0-0.1c-0.4-0.1-0.4-0.4-0.4-0.7c-0.9-2.1-2.1-4.1-3.6-5.8C140.9,23.5,141.3,24.1,140.7,24.1z
		 M140.5,29.6c-0.1,0-0.1,0-0.2-0.1c0,0,0-0.1,0.1-0.2c0.1,0,0.1,0,0.2,0.1l0,0l0,0C140.6,29.5,140.5,29.6,140.5,29.6z"/>
	<path class="st4" d="M76.5,22.2c0.3,0.5,0.6,1.2,1.2,1.1c0.9-0.1,1.7-0.5,2.6-0.8c0.3-0.1,0.5-0.4,0.8-0.3c0,0,0.1,0,0.1,0.1
		c0.3,0.2,0.3,0.4,0.2,0.7l0,0l0,0l0,0l0,0c0.1,0,0.2,0.1,0.2,0.2v0.1c0.4,0.3,0.6,0.8,1.1,0.9c0.2-0.1,0.4-0.3,0.6-0.4
		c0.1,0,0.1-0.1,0.2-0.1s0.2,0,0.4,0.1c-0.2,0.3-0.4,0.7-0.3,1.1c0.1,0.1,0.2,0.2,0.3,0.3c0.3,0,0.4,0.1,0.4,0.4
		c0.3,0,0.4,0.1,0.4,0.4l0,0c0.4-0.4,1.2,0.1,1.3-0.8c0.3,0.5,0.3,1.1,0.9,1c0.5-0.1,0.5-0.5,0.5-0.9c-0.2,0-0.6,0.1-0.7-0.2
		c0-0.1,0.2-0.3,0.3-0.4c-0.4-0.6-0.8-1.3-1.2-1.9c-0.3-0.1-0.3-0.4-0.5-0.6l0,0l0,0c-0.2,0-0.2-0.1-0.3-0.2v-0.1l0,0l0,0
		c-0.2,0-0.3-0.1-0.3-0.2s0-0.3,0-0.4c-0.2-0.3-0.4-0.6-0.6-0.9c1,0.5,1.7,1.4,2.4,2.2c0.5,0.5,1,1.1,1.5,1.6
		c0.6,0.3,1.2,0.5,1.8,0.8c-0.1,0-0.3,0-0.3,0.2c0,0,0,0.1,0.1,0.1c0.2,0,0.2-0.2,0.2-0.3c0.5-0.1,1.2,0.3,1.2-0.7
		c-0.1-0.2-0.1-0.4-0.2-0.6c-0.7-1.5-1.5-2.9-2.2-4.4c-0.2-0.2-0.4-0.5-0.6-0.7l0,0c-0.1,0.2-0.3,0.4-0.4,0.6
		c-0.1,0.1-0.2,0.1-0.3,0.1l0,0c-0.1,0-0.3,0-0.4-0.1c-0.1,0-0.2-0.1-0.3-0.1c-0.1-0.1-0.2,0.2-0.2,0.4c0,0.2-0.2,0.3-0.4,0.4
		c0,0.1,0,0.3-0.2,0.3c0,0-0.1,0-0.1-0.1c0-0.2,0.2-0.2,0.3-0.2c0.2-0.8-0.5-0.4-0.8-0.6c-0.9-0.7-1.8-0.5-2.8-0.2
		c0-0.2,0.1-0.5-0.2-0.7c-0.3,0.2-0.1,0.5-0.2,0.7c-0.3,0-0.6,0-0.9,0.1s-0.5,0.1-0.6,0.1h-0.1h-0.1c-0.1,0-0.1,0-0.1,0
		c-0.1-0.1-0.2-0.4-0.2-1c0.3,0,0.4-0.1,0.4-0.4c-0.2,0-0.4,0.2-0.4,0.4l0,0c-1,1.2-2.3,2-3.1,3.4C76.9,22,76.9,22.2,76.5,22.2z
		 M85.7,24.7c0,0,0.1,0.1,0.2,0.1c-0.1,0.1-0.1,0.2-0.1,0.2c-0.1,0.1-0.2-0.1-0.2-0.2C85.6,24.8,85.6,24.7,85.7,24.7z M84.9,24.7
		C85,24.7,85,24.7,84.9,24.7c0.2,0.1,0.2,0.2,0.2,0.3c0,0.1,0,0.2-0.1,0.3h-0.1c-0.2,0-0.2-0.2-0.2-0.3
		C84.8,24.9,84.8,24.7,84.9,24.7z M82.4,19.1c0,0.1,0,0.3-0.2,0.3c-0.1,0-0.1-0.2-0.2-0.3C82.1,19.1,82.2,19.1,82.4,19.1z
		 M77.9,22.7L77.9,22.7c0,0.1,0.1,0.1,0.1,0.2l0,0l0,0c-0.1,0-0.1,0.1-0.2,0.1c0,0,0-0.1-0.1-0.2C77.8,22.8,77.9,22.7,77.9,22.7z"/>
	<path class="st4" d="M76.5,22.2L76.5,22.2L76.5,22.2z"/>
	<path class="st3" d="M21.2,81.3c-0.9,0-1.9,0.1-2.8,0c-0.7,0-1,0.1-0.9,0.9c0.1,2,0,3.9,0,5.9h-0.1c-0.1,2-0.2,4.1-0.4,6.1
		c-0.1,0.7,0.2,0.8,0.8,0.7c0.9,0,1.9,0,2.8,0c0.6,0,0.8-0.2,0.8-0.8c0-4.1,0.2-8.1,0.5-12.2C21.9,81.3,21.6,81.3,21.2,81.3z"/>
	<path class="st10" d="M144.9,30.8c-0.5,0.2-0.5-0.5-0.9-0.5c-0.3,0.3-0.1,0.7-0.1,1s-0.2,0.5-0.5,0.5c-0.4,0-0.3-0.3-0.3-0.6
		c-0.1-0.3,0.1-0.6-0.2-0.9c-0.1,0.6-0.7,0.5-1.1,0.8c-0.2,0.1-0.4,0.2-0.5,0s0-0.4,0.2-0.5c0.3-0.1,0.4-0.3,0.5-0.5V30
		c0-0.1,0-0.2,0-0.3c-1.3,0.9-2.6,1.9-3.9,2.8c-0.1,0.1-0.2,0.2-0.4,0.3c-2.3,1.7-4.5,3.5-6.8,5.2c0.1,0.4,0.4,0.3,0.7,0.4
		c0.2-0.1,0.5-0.1,0.7-0.2c2.7-1.1,5.5-2.2,8.2-3.4c0.9-0.6,1.9-0.9,3-1c-0.5,0.4-1,0.7-1.5,1.1c0,0.1,0,0.2,0,0.4l0.1,0.1l0.1,0.1
		l0.1,0.1c0,0.1,0,0.2,0,0.4c-0.3-0.2-0.2-0.5-0.2-0.7c-0.2,0-0.4,0-0.7,0h-0.1v0.1c0,0.5-0.6,0.6-0.7,1.1c0.9-0.2,1.7,0.4,2.6,0.1
		c0.8-0.3,1.8-0.2,2.2-1.3c0.3,0.7,0.5,1.2,0.7,1.8c0.3,0,0.2-0.4,0.4-0.4c1.1,0.1,0.7-0.8,0.5-1.1c-0.1-0.2-0.2-0.5-0.2-0.7
		c0-0.1,0-0.2,0-0.3c0-0.3,0-0.6,0-0.8c-0.3-1.3-0.9-2.6-1.6-3.8C144.9,30.2,145.2,30.6,144.9,30.8z"/>
	<path class="st10" d="M70.7,35.9c0.6-0.3,1.3,0.1,1.2,0.4c-0.1,0.9,0.1,0.5,0.6,0.4c1.1-0.3,2.2-0.9,3.3-0.5
		c0.5,0.2,0.6,0.1,0.6-0.1c0-0.1,0-0.2,0-0.3l0,0v-0.1c-0.2-0.2-0.4-0.4-0.7-0.4c-0.1,0-0.1,0-0.2,0s-0.2-0.1-0.2-0.2
		c0,0,0-0.1-0.1-0.2c0,0-0.1-0.1-0.2-0.1l0,0l0,0c-0.1,0-0.1,0-0.2,0l0,0c-0.2,0-0.3,0-0.4-0.3v-0.1C74.2,34.2,74,34,73.7,34
		c-0.1,0-0.2,0-0.2,0s0,0-0.1,0l0,0l-0.1-0.1c0,0,0-0.1,0-0.2c0-0.2,0-0.3,0.2-0.4c0.3-0.1,0.5,0,0.6,0.3c1.8,0.8,3.6,1.6,5.3,2.4
		c0.2,0.1,0.4,0.1,0.5,0.2c2.2,0.9,4.3,1.9,6.5,2.6c0.2-0.1,0.2-0.2,0.3-0.4c-2.8-2.1-5.5-4.3-8.3-6.4c-0.5-0.4-1-0.7-1.5-1.1
		c0,0.1-0.1,0.1-0.1,0.2s-0.1,0.2-0.1,0.3l0,0c0,0.1-0.1,0.3-0.2,0.3l0,0c-0.1,0.1-0.1,0.1-0.2,0.1s-0.3-0.1-0.6-0.3
		c-0.1-0.1-0.3,0-0.4,0.1c-0.6,0.6-1.1,0.2-1.6-0.2c-0.4-0.4-1.2-0.5-1.4-0.4c-1,0.9-0.9-0.1-1-0.6c-0.7,0.8-0.7,2-1.2,2.9
		c0,0.2,0,0.4-0.2,0.5s-0.2,0.4-0.2,0.6c-0.1,0.4,0.3,0.8-0.3,1c0,0.1,0,0.1,0,0.2C69.8,36.7,70.4,36.1,70.7,35.9z M72.8,35.5
		c0.1,0,0.1,0.1,0.1,0.2c0,0.1-0.1,0.1-0.2,0.2c-0.1-0.1-0.1-0.2-0.2-0.2C72.6,35.6,72.6,35.5,72.8,35.5z M70.3,35
		c0-0.1,0.2-0.1,0.2-0.1c0.1,0,0.1,0.1,0.2,0.2c-0.1,0.1-0.2,0.1-0.3,0.1C70.3,35.2,70.2,35.1,70.3,35z"/>
	<path class="st6" d="M87.7,14.7c0.5-0.2,1.1-0.7,1.4,0.3c0.6-0.5,1.2-0.2,1.7,0.1c0.1-0.8,0.8-0.3,1.1-0.6c0.4-0.3,0.7-0.5,0.7,0.2
		c0,0.4,0.2,0.5,0.5,0.3c0.3-0.1,0.3-0.4,0.1-0.7c-0.2-0.2-0.4-0.5,0-0.8c0.3,1,0.8,0.9,1.2-0.1c0.1,0.4,0.1,0.5,0.1,0.7
		c0,0.3-0.1,0.7,0.3,0.7c0.4,0.1,0.5-0.3,0.5-0.7c0-0.3,0.2-0.6-0.2-0.7c-0.3-0.1-0.3-0.4-0.1-0.6c0.2-0.3,0.5-0.2,0.7,0
		c0.4,0.2,0.6,0.5,0.6,0.7c0,0.1,0,0.3,0,0.4c0,0.2-0.1,0.3-0.2,0.5l0,0l0,0c0,0.1,0,0.1,0.1,0.2c0.3,0,0.6,0,0.8,0.3
		c0.2,0.4,0.4,0.7,0.9,0.1c0.2-0.3,0.5,0,0.6,0.4c0.1,0.3-0.2,0.9,0.4,0.8s0.3-0.5,0.1-0.9c-0.1-0.2-0.3-0.7,0.3-0.7
		c0.3,0,0.3-0.1,0.4-0.3c0-0.2-0.1-0.6,0-0.8l0,0l0,0l0,0l0,0l0,0c-0.1,0-0.3,0-0.4,0c0,0.1,0,0.3-0.2,0.3c0,0-0.1,0-0.1-0.1
		c0-0.2,0.2-0.2,0.3-0.2c0-0.3,0.1-0.4,0.4-0.4c0-0.3,0-0.5,0-0.8l0,0c-0.2,0-0.3-0.1-0.4-0.2c0,0,0-0.1,0-0.2
		c-0.2,0-0.3-0.1-0.4-0.2l-0.1-0.1c-0.1-0.2-0.2-0.4-0.3-0.6c-0.1-0.1-0.1-0.5-0.2-0.4c-0.6,0.5-1.3-0.1-1.9,0.2
		c-1.3,0.6-2.7,0.2-4.1,0.3c-0.5,0-0.9-0.2-0.9-0.8c-1.6,0.5-3,1.3-4.3,2.3c0,0.1,0,0.3,0,0.4c0.2,0,0.4-0.1,0.5,0.2l-0.1,0.2
		c-0.3,0-0.3-0.2-0.3-0.3c-0.2,0-0.4,0-0.7,0c-0.1,0-0.1,0-0.1,0.1c0,0.3-0.2,0.4-0.4,0.3c-0.2,0-0.3,0-0.4,0.2
		C86,14.6,86.8,15,87.7,14.7z M88.7,13.9c0-0.1,0.1-0.1,0.2-0.3c0.1,0.1,0.1,0.2,0.1,0.3L88.9,14C88.7,14.1,88.7,14,88.7,13.9z"/>
	<path class="st11" d="M143.6,42.8c-3.7,1.2-7.4,2.4-11,3.6c0,0.1,0,0.2,0.1,0.3c3.8,0,7.6-0.7,11.4-0.5c0.5-0.6,1.1-0.3,1.7-0.4
		c0.5-0.1,1-0.1,1.4-0.1l0,0c0.2-0.1,0.4-0.2,0.6-0.3c0.1,0,0.3,0,0.4,0c0.1,0,0.2,0,0.3,0s0.2,0.1,0.3,0.1c0.1-1.4,0-2.8-0.4-4.1
		c0,0.4-0.1,0.6-0.4,0.9C147,43.7,145.5,43.9,143.6,42.8z"/>
	<path class="st11" d="M68.6,46.1c1.6-0.3,3.3-0.4,5-0.5c2.1-0.1,4.2,0.2,6.3,0.3c0.6-0.2,1.3,0.4,1.8-0.4c-1.3-0.4-2.6-1-4-1.4
		c-1.8-0.6-3.6-1.2-5.5-1.8c-0.7-0.2-1.5-0.4-2.2-0.8l0,0c-0.4,0-0.7,0.1-0.8,0.4C69.1,42,69,42.2,69,42.5s-0.1,0.6-0.4,0.6
		c-0.5,0-0.3-0.4-0.3-0.7c0-0.4,0-0.7,0-1.1c-0.4,1.3-0.3,2.7-0.4,4.1C67.7,46.2,68,46.2,68.6,46.1z"/>
	<path class="st6" d="M108.5,10.8L108.5,10.8c-0.1,0-0.3,0-0.4,0c-1.6,1-3.3,0.4-5,0.4c-0.5,0-1.1-0.8-1.2,0.4
		c-0.3-0.3-0.2-0.5-0.2-0.7c0-0.3,0-0.6-0.4-0.6s-0.4,0.3-0.4,0.6s0.1,0.6-0.2,0.8c-0.4-0.4-0.5-1-0.8-1.4c-0.1,0.2-0.1,0.4-0.2,0.6
		c0,0.2,0,0.4,0,0.5l0,0c0.1,0.2,0.2,0.4,0.3,0.6c0.1,0.2,0.2,0.4,0.1,0.6c0.3,1,0.5,1.9,0.8,2.9c0.3,0.4,0,1,0.4,1.4
		c0.2,0,0.3-0.2,0.4-0.4c0.2-0.6,0.4-1,0.9-0.1c0.2,0.3,0.5,0.5,0.7,0c0.3-0.8,0.8-1.5,0.9-2.4c0-0.2,0-0.4-0.1-0.7
		c0-0.6,0-1.1,0-1.7h0.1c0.1,0.4,0.2,0.9,0.3,1.3c0.7,0.3,0.2,0.9,0.3,1.4c0,0.1,0,0.1,0,0.2c0.6-0.5,0.9-0.2,0.8,0.5
		c0.6-0.2,0.1-0.8,0.6-1c0.3,0.3,0.1,0.7,0.3,1c0.5-0.4,0-1.1,0.4-1.6c0.3,0.2,0.2,0.7,0.2,1.1c0,0.1,0,0.2,0.1,0.2
		c0.1,0.1,0.1,0.2,0.3,0.2c0.1,0,0.1,0,0.2,0s0.1,0,0.2,0c0-0.3,0-0.5,0-0.8l0,0l0,0c0-0.4,0-0.8,0-1.2l0,0c0-0.4,0-0.8,0-1.2
		c0-0.3-0.1-0.7,0.3-0.8c0.1-0.1,0.1-0.1,0.1-0.2C108.5,11,108.5,10.9,108.5,10.8C108.5,10.9,108.5,10.8,108.5,10.8z"/>
	<path class="st5" d="M144.5,57.8c1.1-0.8,2.1-1.8,2.8-3c0-0.1-0.1-0.2-0.1-0.3c-4.9,0-9.8,0-14.7,0c-0.2,0-0.4,0-0.5,0
		c4,1.2,8,2.3,12,3.4C144.1,58,144.3,58,144.5,57.8z"/>
	<path class="st10" d="M139.7,30.1L139.7,30.1c-0.1,0-0.2-0.1-0.2-0.1l-0.1-0.1c-0.1-0.1-0.1-0.3,0-0.6c-0.3,0.6-0.5,1.2-1,0.2
		c-0.1-0.3-0.6-1-1.1-0.3c-0.2,0.2-0.2,0.6-0.6,0.5c-0.4-0.1-0.2-0.5-0.3-0.8c0.2,0,0.4-0.1,0.4-0.4c-0.3,0-0.4,0.1-0.4,0.4
		c-2.4,2.1-4.8,4.4-7.1,6.7c0,0.4,0.3,0.4,0.6,0.4c0.2-0.1,0.4-0.1,0.5-0.2c2.3-1.3,4.6-2.5,6.9-3.8c1-0.6,2.1-1.3,3.1-1.9l0,0
		C140.1,30.1,139.9,30.1,139.7,30.1z"/>
	<path class="st12" d="M34.4,102.3c-0.1,0.8-0.4,1.6-0.9,2.3c-0.5-0.9-0.8-1.8-1-2.7c-0.1-0.7-0.5-0.5-0.8-0.5s-0.6-0.1-0.8,0.5
		c-0.2,0.9-0.6,1.8-1,3c-0.4-1-0.8-1.7-0.9-2.4c-0.1-1.1-0.7-1.2-1.6-0.9c0.5,1.7,1.3,3.3,1.8,5c0.1,0.5,0.6,0.2,0.9,0.3
		c0.3,0.1,0.4-0.1,0.5-0.4c0.3-1,0.7-2,1-3c0.6,1,1.1,2,1.3,3c0.1,0.4,0.2,0.4,0.4,0.4c0.3,0,0.8,0.2,0.9-0.2c0.4-1.7,1.2-3.3,1.7-5
		C35.1,101.3,34.5,101.2,34.4,102.3z"/>
	<path class="st12" d="M112.4,101.4c-0.9-0.2-1.6-0.1-2,1.1c-0.2,0.7-0.5,1.3-1.1,1.9c-0.6-0.9-1-1.7-1.4-2.6
		c-0.3-0.7-0.9-0.3-1.4-0.3c-0.6-0.1-0.2,0.4-0.2,0.6c0,1.4,0.1,2.8-0.1,4.1c-0.1,0.7,0.3,0.5,0.7,0.6c0.5,0,0.6-0.1,0.5-0.6
		c-0.1-0.8,0-1.7,0-2.6c0.1,0,0.1,0,0.2,0c0.6,1,1.1,2.1,1.7,3.2c0.6-1.1,1.2-2.1,1.7-3.1c0.1,0,0.2,0,0.2,0.1c0,0.8,0,1.6,0,2.4
		c0,0.2-0.3,0.5,0,0.6s0.7,0.1,1.1,0s0.1-0.4,0.1-0.7C112.4,104.5,112.4,103,112.4,101.4z"/>
	<path class="st13" d="M102.5,16.6c-0.4-0.8-0.7-0.5-0.9,0.1c-0.1,0.2-0.2,0.3-0.4,0.4c0.9,3.6,2.1,7.2,3.1,10.6c0-1.8,0-3.8,0-5.7
		c0-2.6-0.1-5.2-0.3-7.8c-0.1,0.8-0.5,1.6-0.9,2.4C103,17.1,102.7,17,102.5,16.6z"/>
	<path class="st13" d="M104,13.6c0,0.2,0,0.4,0.1,0.7C104.1,14,104.1,13.8,104,13.6z"/>
	<path class="st10" d="M83.4,27.4c-0.4,0-0.9-0.1-1.2,0.1c-0.6,0.3-1.1,0-1.3-0.4c-0.5-0.9-0.9-0.5-1.4-0.1c0.5,0.4,0.9,0.8,1.4,1.2
		c2.9,2.1,5.8,4.1,8.8,6.2c0.2,0.1,0.3,0.5,0.6,0.2c0.1-0.2,0-0.4-0.2-0.5c-2-2.4-4.1-4.8-6.1-7.2C84,27.2,83.8,27.4,83.4,27.4z"/>
	<path class="st8" d="M112.5,12c-0.1-0.1-0.1-0.2-0.2-0.3c0-0.1-0.1-0.2-0.1-0.3c0,0-0.1,0-0.1-0.1c-0.2,0.1-0.2,0.3-0.2,0.4
		c0,0.8-0.2,1.2-1.1,0.9c-0.2-0.1-0.5,0-0.7,0.1c-0.8,0.5-1.2,0.3-1.3-0.7c0-0.5,0.1-1-0.1-1.4v-0.1c0,0,0-0.1-0.1-0.1l0,0
		c-0.1,0-0.1,0.2-0.1,0.3l0,0c0,0.1,0,0.1,0,0.2c0.1,1.2,0.2,2.5,0.3,3.7c0,0.4,0.1,0.8,0.1,1.2c0.7,0.7,0.2,1.5,0.3,2.3
		c0.1,0.3-0.1,0.9,0.1,0.9c0.5,0,1,0.3,1.5,0.3c0.2,0,0.3-0.3,0.3-0.4c0-0.3-0.1-0.6,0.4-0.7c0.3-1.7,0.7-3.4,0.9-5.1
		c-0.1-0.4,0.3-0.7,0.3-1.1l0,0C112.6,12,112.5,12,112.5,12z"/>
	<path class="st8" d="M116.4,12.7c-0.2-0.1-0.1-0.6-0.5-0.4c-0.3,0.1-0.4,0.3-0.4,0.6c0,0.2,0.1,0.4-0.2,0.6c-0.4-0.6-1-0.7-1.9,0
		c0.4-1.1-0.2-1.7-0.3-2.4c-0.1-0.4-0.2-0.2-0.3,0.1c0.2,1.2,0.1,2.4-0.1,3.5c0,0.9,0,1.9,0,2.8c0,0.5,0.3,1.1,0.5,1.4
		c0.4,0.6,1.2,0.4,1.8,0.2c0.4-1.3,0.8-2.6,1.2-3.9c0-0.8,0.5-1.4,0.5-2.2c0,0-0.1,0-0.1-0.1C116.5,12.8,116.5,12.8,116.4,12.7z"/>
	<path class="st13" d="M122.3,18.4c-0.1-0.2-0.2-0.5-0.6-0.5c-0.2,0-0.3,0.2-0.4,0.4c-0.1,0.9-0.7,0.7-1.2,0.4
		c-0.1,0.1-0.2,0.3-0.2,0.4c-0.8,2.9-1.5,5.7-2.3,8.6c0,0.2-0.1,0.4,0.1,0.4c0.2,0.1,0.4-0.1,0.5-0.2c1.8-3,3.6-6,5.1-9.2
		C122.9,19,122.5,19,122.3,18.4z"/>
	<path class="st12" d="M57.1,101.8c0-0.7-0.4-0.4-0.7-0.4s-0.6-0.2-0.5,0.5c0.1,0.9,0.1,1.8-0.1,2.9c-1-1-2-1.9-2.7-3
		c-0.4-0.7-0.9-0.2-1.4-0.3c-0.1,0-0.3,0-0.3,0.2c0,1.6,0,3.1,0.1,4.7c0,0.6,0.5,0.3,0.8,0.4c0.5,0.1,0.3-0.2,0.3-0.5
		c0-0.9,0-1.8,0-2.7c0.1,0,0.2-0.1,0.2-0.1c0.9,1,1.9,2,2.7,3.1c0.4,0.6,0.9,0.3,1.3,0.3c0.6,0,0.2-0.5,0.2-0.7
		C57.1,104.6,57.1,103.2,57.1,101.8z"/>
	<path class="st9" d="M134.4,23.4c-0.1-0.1-0.2-0.2-0.2-0.3c-0.1-0.1-0.1-0.1-0.2-0.1c-0.2,0-0.4,0.1-0.6,0.8
		c-0.3-0.8-0.3-0.8-1.3-1c-0.3-0.1-0.3-0.4-0.5-0.6c-0.4,0.5-0.8,1-1.2,1.4c-0.7,1-1.3,2.1-2,3.1c0,0.4,0.1,0.9-0.1,1.3
		c-0.2,0.2-0.4,0.6-0.1,0.7c0.2,0.1,0.9-0.2,0.9-0.4c-0.1-1.4,0.6-0.2,0.9-0.3c1.4-1.2,2.8-2.4,4.1-3.6c0.2-0.3,0.4-0.5,0.6-0.8
		c-0.1,0-0.1-0.1-0.2-0.1L134.4,23.4C134.5,23.6,134.4,23.5,134.4,23.4z"/>
	<path class="st12" d="M146.4,101.4c-1.9-0.2-3.6,1-3.7,2.6c-0.1,1.5,1.2,2.7,3.1,2.7c0.1,0,0.2,0,0.3,0c0.8-0.2,1.4,0.1,1.7,1
		c0.3-0.4,1.1-0.8,0.9-1c-1-0.6-0.1-0.9,0.1-1.2c0.2-0.3,0.3-0.6,0.3-0.9C149.4,102.9,148.2,101.6,146.4,101.4z M147.6,105.2
		c-0.4,0.3-0.6-0.1-0.9-0.2c-0.4-0.1-0.8-0.4-1.3,0c0.2,0.3,0.7,0.4,0.7,0.8c-1.2,0.1-2.2-0.5-2.3-1.5c-0.1-0.9,0.7-1.7,1.8-1.9
		c1.1-0.2,2.2,0.6,2.4,1.6C148.1,104.5,147.9,104.9,147.6,105.2z"/>
	<path class="st12" d="M74.3,101.9c0.1-0.7-0.3-0.5-0.6-0.5c-0.3,0-0.7-0.3-0.6,0.5c0.1,0.9,0.1,1.8-0.1,2.9
		c-0.9-0.9-1.8-1.7-2.4-2.6s-1.2-0.8-1.9-0.7c0,1.6,0.1,3.2,0,4.8c0,0.7,0.4,0.4,0.6,0.4s0.6,0.2,0.6-0.4c-0.1-0.9,0-1.9,0-3.1
		c1.2,1.2,2.2,2.1,3,3.3c0.4,0.6,0.9,0.3,1.3,0.3c0.5,0,0.1-0.5,0.1-0.7C74.3,104.6,74.2,103.3,74.3,101.9z"/>
	<path class="st12" d="M87.4,104.2c0.7-0.3,1-0.9,0.8-1.7c-0.2-0.8-0.8-1.1-1.4-1.1c-1.2-0.1-2.4,0-3.5,0c-0.2,0-0.3,0-0.3,0.4
		c0.1,1.5,0.1,3.1,0,4.6c0,0.2-0.1,0.3,0.1,0.3c0.4,0,0.8,0.1,1.2,0c0.3-0.1-0.1-0.5,0-0.8c0.1-0.2,0-0.4,0-0.6
		c-0.1-0.7,0.3-0.9,0.9-0.8c1,0.2,1.2,1.1,1.6,1.8c0.1,0.2,0.1,0.4,0.4,0.4c0.4,0,0.8,0,1.3,0c-0.4-0.6-0.8-1.2-1.2-1.7
		C87,104.7,86.8,104.5,87.4,104.2z M85.3,103.7c-0.7,0.1-1.3,0.1-1.2-1c0.1-1,0.8-0.4,1.2-0.6c0.7,0.1,1.7-0.2,1.7,0.7
		C87,103.9,86,103.7,85.3,103.7z"/>
	<path class="st13" d="M92.6,19.1c0,0.2-0.1,0.3-0.2,0.4l-0.1,0.1c-0.1,0.1-0.1,0.1-0.2,0.1c-0.4,0-0.9-0.1-1.1-0.6
		c-0.1-0.4-0.6-0.5-0.7-0.2C90,20,89.4,19.2,89,19.1c1.5,2.3,3.1,4.5,4.8,6.7c0.6-0.1,1.3,0,0.8-1c-0.1-0.3,0-0.6,0-1
		c-0.1-0.9-0.7-1.6-0.8-2.5c-0.6-0.7-0.6-1.7-1.1-2.5l0,0C92.7,18.9,92.6,19,92.6,19.1z"/>
	<path class="st12" d="M42.3,101.4c-0.3,0-0.8-0.3-0.7,0.5c0.2,1.5,0.1,1.5-1.4,1.5c-1.6,0-1.6,0-1.6-1.6c0-0.7-0.4-0.4-0.7-0.5
		c-0.3,0-0.6-0.2-0.6,0.4c0.1,1.4,0.1,2.8,0,4.2c0,0.6,0.3,0.6,0.8,0.7c0.6,0,0.6-0.2,0.5-0.7c-0.1-1.6-0.1-1.6,1.5-1.6
		c1.7,0,1.8,0,1.6,1.7c-0.1,0.6,0.2,0.6,0.6,0.5c0.3,0,0.8,0.3,0.7-0.5c-0.1-0.7,0-1.4,0-2.1l0,0c0-0.6,0-1.2,0-1.8
		c0-0.2,0-0.3,0-0.5C43.1,101.2,42.6,101.4,42.3,101.4z"/>
	<path class="st12" d="M137.5,103.8c-0.4-0.1-0.9-0.2-1.4-0.2c-0.4,0-0.8-0.1-1.2-0.2c-0.2-0.1-0.4-0.2-0.4-0.5s0.2-0.4,0.4-0.5
		c0.7-0.4,1.5-0.3,2.1,0.1c0.9,0.7,1.1,0.2,1.4-0.6c-0.4-0.1-0.7-0.2-1.1-0.3c-0.9-0.2-1.9-0.4-2.8,0c-0.7,0.3-1.2,0.8-1.1,1.6
		c0.1,0.8,0.7,1.2,1.5,1.3c0.6,0.1,1.2,0.1,1.8,0.2c0.3,0,0.7,0,0.7,0.4c0.1,0.4-0.3,0.5-0.6,0.6c-0.9,0.3-1.7,0.1-2.4-0.3
		c-0.4-0.2-0.5-0.2-0.6,0.2c-0.1,0.2-0.4,0.5,0.1,0.7c1.4,0.5,2.8,0.7,4.2-0.1c0.5-0.3,0.8-0.8,0.7-1.4
		C138.4,104.3,138,103.9,137.5,103.8z"/>
	<path class="st13" d="M96,19c-0.6,0-0.6,0.2-0.6,0.7c0.1,0.7-0.4,0.6-0.8,0.7c0.1,0.4,0.3,0.8,0.4,1.1c1.2,2.1,2.4,4.2,3.6,6.3
		c0.4-0.1,0.3-0.4,0.3-0.6c-0.3-1.9-0.9-3.8-1.4-5.7c-0.3-1.1-0.4-2.3-1-3.4C96.6,18.5,96.3,19,96,19z"/>
	<path class="st12" d="M92.7,104c-0.1,0.4-0.1,0.7,0,1.2c0.3-0.3,0.7-0.2,1.1-0.2c0.2,0,0.5-0.1,0.5,0.3c0.1,0.3-0.1,0.5-0.4,0.5
		c-0.5,0.1-1.1,0.2-1.7,0.2c-1-0.1-1.6-0.8-1.6-1.7c0-1.1,0.6-1.8,1.7-2c0.9-0.1,1.7,0.1,2.3,0.7c0.7-1.1,0.7-1.1-0.5-1.4
		c-0.7-0.2-1.4-0.2-2-0.2c-1.4,0.1-2.5,1.1-2.6,2.4c-0.1,1.5,0.7,2.6,2.3,2.8c0.8,0.1,1.6,0.1,2.3-0.1c0.8-0.2,1.5-0.5,1.2-1.5
		c-0.1-0.3,0.1-0.6,0.1-0.9C94.5,104,93.6,104.3,92.7,104z"/>
	<path class="st12" d="M123.1,105.9c-0.6,0.1-0.9-0.1-0.9-0.8c0-0.8,0.4-0.8,0.9-0.7c0.5,0,1.1-0.1,1.6,0.3c0.1-0.5,0.1-0.9,0-1.4
		c-0.6,0.4-1.3,0.2-1.9,0.3c-0.6,0.1-0.6-0.3-0.6-0.7c0-0.5,0.1-0.7,0.6-0.6c0.9,0.1,1.9-0.1,2.8,0.1c0.5,0.1,0.4-0.2,0.4-0.5
		c0-0.2,0.1-0.6-0.3-0.5c-1.4,0.2-2.9,0-4.3,0.1c-0.3,0-0.4,0.1-0.4,0.4c0,1.4,0.1,2.9,0,4.3c0,0.5,0.2,0.6,0.6,0.6
		c1.1,0,2.2,0,3.2,0c0.4,0,0.8-0.1,0.9,0.5c0.5-0.6,0.4-1.1,0.3-1.7C125,106.2,124,105.8,123.1,105.9z"/>
	<path class="st5" d="M143,58.5c-3.9-0.5-7.7-0.9-11.6-1.4c2,0.9,4,1.7,6,2.6C139.6,60.6,141.3,59.6,143,58.5z"/>
	<path class="st12" d="M47,105.9c-0.6,0.1-0.9-0.1-0.9-0.8c0-0.8,0.4-0.7,0.9-0.7s1.1-0.1,1.6,0.3c0.1-0.5,0.1-0.9,0-1.4
		c-0.6,0.5-1.2,0.3-1.9,0.3c-0.6,0.1-0.6-0.3-0.6-0.7c0-0.4,0.1-0.7,0.6-0.6c0.9,0,1.8,0,2.7,0.1c0.4,0,0.4-0.1,0.4-0.4
		c0-0.2,0.1-0.6-0.3-0.5c-1.4,0.2-2.8,0-4.2,0.1c-0.3,0-0.5,0-0.4,0.5c0.1,1.4,0.1,2.9,0,4.3c0,0.5,0.1,0.5,0.5,0.5
		c1.2,0,2.4-0.1,3.5,0s1.2-0.3,0.9-1.1C49,106.1,48,105.8,47,105.9z"/>
	<path class="st4" d="M119,17.9c0,0.2,0.1,0.4-0.2,0.5c-0.2,0.1-0.5-0.1-0.5-0.3c-0.1-0.2,0-0.4-0.1-0.6c-0.8,0.2-1.2-0.3-1.6-0.8
		c-0.4,1.7-0.7,3.5-0.8,5.3c0,0.5,0,0.9,0,1.4c0,0.3,0.1,0.6,0.4,0.7c0.4,0.2,0.4-0.3,0.6-0.5c1.3-2,2-4.3,2.9-6.5
		C118.8,16.8,119,17.4,119,17.9z"/>
	<path class="st12" d="M78,105.9c-0.6,0-0.4-0.5-0.4-0.8s-0.1-0.7,0.4-0.7c0.7,0,1.3-0.1,2,0.2c0-0.4,0-0.8,0-1.3
		c-0.6,0.4-1.2,0.2-1.8,0.3c-0.6,0.1-0.6-0.3-0.6-0.7c0-0.4,0.1-0.7,0.6-0.6c0.9,0,1.8,0,2.7,0.1c0.4,0,0.4-0.1,0.4-0.4
		c0-0.2,0.1-0.6-0.3-0.6c-1.6,0.2-3.1,0-4.7,0.1c0,1.8,0,3.5,0,5.3c1.3,0,2.7-0.1,4,0c1,0.1,1.2-0.3,0.9-1.1
		C80.2,106.1,79.1,105.9,78,105.9z"/>
	<path class="st8" d="M99.7,14.4c0,0.1-0.1,0.3-0.4,0.3c-0.7,0.1-0.5,0.5-0.3,0.7c0.2,0.4,0.5,0.8-0.1,0.9s-0.3-0.5-0.4-0.8
		c-0.1-0.4-0.4-0.7-0.6-0.4c-0.5,0.7-0.7,0.3-0.9-0.1c-0.2-0.3-0.5-0.2-0.8-0.3c0.2,0.7,0.5,1.3,0.7,2c0.3,0.7,0.6,1.3,0.9,2
		c0.3,0,0.5,0.3,0.6,0.5c0.2,0.3,0.2,0.7,0.8,0.5c0.2-0.1,0.5,0.4,0.5,0.8c0,0.3-0.1,0.6,0.3,1c0-1.2,0.1-2.2,0.4-3.2
		c0-0.3,0-0.6,0-1c-0.5-1.2-0.3-2.6-0.7-3.8l0,0C99.6,13.8,99.8,14.1,99.7,14.4z"/>
	<path class="st12" d="M115.8,105.9c-0.5,0-0.2-0.6-0.3-1c0-0.3,0.1-0.5,0.4-0.5c0.7,0,1.4-0.1,2.1,0.2c0.2-0.4,0.1-0.8,0-1.3
		c-0.6,0.5-1.2,0.2-1.8,0.3c-0.5,0.1-0.7-0.2-0.7-0.7s0.2-0.7,0.7-0.7c0.9,0,1.8,0,2.7,0.1c0.4,0,0.5-0.1,0.4-0.4
		c0-0.2,0.1-0.6-0.3-0.6c-1.6,0.2-3.1,0-4.6,0.1c0,1.6,0,3.2,0,4.7c0,0.5,0.1,0.6,0.5,0.6c1.1,0,2.3,0,3.4,0s1.1,0,0.9-1
		C118.1,106.1,117,105.9,115.8,105.9z"/>
	<path class="st12" d="M63.6,105.9c-0.5,0-0.3-0.6-0.3-0.9s0-0.6,0.4-0.6c0.7,0,1.4-0.2,2.1,0.2c0-0.5,0-0.9,0-1.4
		c-0.6,0.5-1.2,0.3-1.8,0.3c-0.5,0.1-0.7-0.2-0.7-0.7s0.2-0.7,0.7-0.7c0.9,0,1.8,0,2.7,0.1c0.4,0,0.5-0.1,0.4-0.4
		c0-0.2,0.1-0.6-0.3-0.6c-1.6,0.3-3.1,0-4.6,0.1c0,1.6,0.1,3.2,0,4.7c0,0.5,0.1,0.6,0.5,0.6c1.2,0,2.4-0.1,3.5,0
		c1,0.1,1.1-0.3,0.9-1.1C66,106.1,64.8,105.9,63.6,105.9z"/>
	<path class="st12" d="M159.8,101.4c-0.8,0-0.4,0.6-0.6,0.9c-0.7,1.4-1.4,2.9-2.1,4.5c0.5-0.2,1.2,0.2,1.3-0.2c0.2-1.3,1.1-1,1.8-1
		c0.4,0,1-0.2,1.1,0.3c0.3,1.2,1.1,0.8,1.8,0.8c-0.8-1.5-1.7-3-2.2-4.5C160.7,101.4,160.4,101.4,159.8,101.4z M160.6,104.6
		c-0.1,0.4-0.9,0.1-1.4,0.1c0.2-0.6,0.4-1.2,0.9-1.7C160.3,103.6,160.7,104.2,160.6,104.6z"/>
	<path class="st12" d="M154.8,101.4c0.3,1.1,0.2,2.2,0.1,3.3c0,0.9-0.6,1.2-1.7,1.1c-0.8,0-1.4-0.3-1.4-1.3c0-0.9,0-1.9,0-2.8
		c0-0.7-0.5-0.3-0.7-0.4c-0.2,0-0.6-0.3-0.6,0.4c0.1,0.9,0,1.9,0.1,2.8c0,1.3,0.6,2,2,2.1c0.4,0,0.8,0,1.2,0c1.6,0,2.2-0.6,2.2-2.2
		c0-1-0.2-2,0.2-3.1C155.7,101.4,155.2,101.4,154.8,101.4z"/>
	<path class="st10" d="M82.4,31.8c-0.7-0.5-1.4-0.7-2.2-0.2c-0.6,0.4-0.6-0.3-0.6-0.7c-0.1,0-0.3,0-0.4,0c0,0.3-0.2,0.4-0.5,0.4
		c0.1,0.1,0.2,0.2,0.3,0.3c3,1.7,6.1,3.3,9.1,5c0.1-0.1,0.1-0.2,0.2-0.2c-1.6-1.8-3.4-3.5-5.2-5.1C83.2,31.9,83.1,32.2,82.4,31.8z"
		/>
	<ellipse class="st10" cx="79.2" cy="30.9" rx="0" ry="0"/>
	<path class="st13" d="M113.2,18.9c-0.2-0.3-0.5-0.9-0.5-1.4c-0.3,3.5-0.4,6.9-0.4,10.4l0,0c1-2.9,1.8-5.9,2.7-8.9
		C114.4,19.4,113.6,19.5,113.2,18.9z"/>
	<path class="st9" d="M127,23.7c-0.1-0.2-0.3-0.4-0.5-0.6c-0.2,0.2-0.4,0.4-0.3,0.7c0.5,0.2,0.9,0.5,0.7,1.2
		c-0.1,0.2-0.2,0.4-0.4,0.4c-0.3,0-0.3-0.2-0.3-0.4c0-0.3,0-0.6,0-1c-1.4,2.2-2.4,4.6-3.7,7c0.4-0.1,3.2-2.8,3.3-2.9
		c0.9-1.4,2.2-2.4,3.2-3.8C128,24.7,127.4,24.5,127,23.7z"/>
	<path class="st13" d="M99.7,20.4c0-0.4-0.3-0.9-0.5-0.8c-0.6,0.2-0.6-0.1-0.8-0.5c-0.1-0.2-0.3-0.5-0.6-0.5
		c1.2,2.8,2.3,5.5,3.5,8.3c0.5-0.1,0.3-0.5,0.3-0.8c-0.3-2.7-0.6-5.3-1.2-7.9c-0.3,1-0.5,2-0.4,3.2C99.6,21.1,99.7,20.7,99.7,20.4z"
		/>
	<path class="st13" d="M111.1,19c0,0.2,0,0.4-0.3,0.4c-0.5,0-1-0.3-1.5-0.3c-0.3,0-0.1-0.6-0.1-0.9c-0.1-0.8,0.3-1.6-0.3-2.3
		c0.3,3.7,0.5,7.5,0.8,11.2c0.1,0,0.2,0,0.3,0c0.5-3,1.1-5.9,1.6-8.9C111.1,18.4,111.1,18.7,111.1,19z"/>
	<path class="st13" d="M107.6,17.6c0.1,0.7-0.4,1.2-0.5,1.8c-0.1,0.4-0.5,0.3-0.6,0c-0.2-0.6-1.2-0.9-1-1.7c0,0-0.2-0.1-0.3-0.2
		c0.5,3,1.1,6,1.6,9.1c0.1,0,0.2,0,0.3,0c0.4-3.3,0.5-6.5,0.7-9.8C107.4,16.9,107.5,17.3,107.6,17.6z"/>
	<path class="st12" d="M131.7,101.4c-1.4,0.1-2.8,0.1-4.2,0c-0.5,0-0.5,0.1-0.6,0.5c0,0.5,0,0.7,0.7,0.6c1.4-0.2,1.4-0.1,1.4,1.2
		c0,0.8,0.1,1.5,0,2.3c-0.1,0.6,0.1,0.8,0.8,0.8c0.8,0,0.5-0.4,0.5-0.8s0-0.8,0-1.2c0-0.5,0-1.1,0-1.6c-0.1-0.7,0.2-0.9,0.8-0.8
		c0.2,0,0.5,0,0.7,0c0.6,0.2,0.5-0.2,0.5-0.5C132.2,101.6,132.3,101.3,131.7,101.4z"/>
	<path class="st12" d="M100.5,101.6c-0.2,0.4-0.4,0.8-0.6,1.2c-0.4,0.7-0.7,0.8-1.1,0c-0.4-1-1.1-1.8-2.4-1.3c1,1.5,2.5,2.8,2.2,4.9
		c-0.1,0.7,0.6,0.3,0.9,0.4c0.4,0.1,0.5-0.1,0.4-0.5c-0.2-1.1,0.1-2.1,0.8-3c0.5-0.5,0.8-1.2,1.4-1.9
		C101.4,101.5,100.7,101.1,100.5,101.6z"/>
	<path class="st8" d="M107.3,15c0-0.1-0.1-0.1-0.1-0.2c-0.1-0.4,0.1-0.9-0.2-1.1c-0.4,0.5,0.1,1.2-0.4,1.6c-0.3-0.3,0-0.8-0.3-1
		c-0.4,0.3,0,0.8-0.6,1c0-0.7-0.2-1-0.8-0.5c-0.1,1,0.3,1.8,0.4,2.8c0.1,0.1,0.3,0.2,0.3,0.2c-0.2,0.9,0.7,1.1,1,1.7
		c0.1,0.2,0.5,0.3,0.6,0c0.1-0.6,0.6-1.1,0.5-1.8c-0.1-0.3-0.2-0.7,0.3-0.9c0-0.4,0.1-0.8,0.1-1.2c0-0.1,0-0.3-0.1-0.4
		c-0.1,0-0.2,0-0.2,0c-0.1,0-0.1,0-0.2,0C107.4,15.1,107.3,15.1,107.3,15z"/>
	<path class="st12" d="M177.9,101.3c-1.3,0.1-2.7,0.1-4,0c-0.5,0-0.8-0.1-0.8,0.5s0.2,0.6,0.7,0.5c1.4-0.2,1.4-0.1,1.4,1.3
		c0,0.4,0,0.7,0,1.1l0,0c0,0.5,0,1-0.1,1.5c-0.1,0.7,0.4,0.4,0.7,0.5c0.3,0,0.7,0.2,0.6-0.5c-0.1-0.8,0-1.6,0-2.5
		c0-1.5,0-1.5,1.4-1.3c0.5,0.1,0.6-0.1,0.6-0.5C178.5,101.5,178.5,101.3,177.9,101.3z"/>
	<path class="st9" d="M89.9,25c0,0.1,0,0.3-0.2,0.3c0,0-0.1,0-0.1-0.1C89.6,25,89.7,25,89.9,25c-0.6-0.3-1.2-0.5-1.8-0.8
		c1.9,2.2,3.8,4.4,5.7,6.5c0.1,0.1,0.3,0.2,0.4,0.1c0.3-0.2,0-0.4,0-0.6c-1-2-1.9-4-3.1-6C91.1,25.3,90.3,24.9,89.9,25z"/>
	<path class="st12" d="M182.9,102.2c-0.7,1.5-1.1,1.5-1.7,0c-0.4-1-1-0.8-1.7-0.8c-0.1,0-0.2,0-0.4,0c1,1.6,2.7,2.8,2.2,5
		c-0.1,0.5,0.5,0.2,0.8,0.3c0.2,0,0.5,0.1,0.4-0.4c-0.3-1.2,0.1-2.2,0.9-3.2c0.5-0.5,0.8-1.1,1.3-1.7
		C183.9,101.4,183.3,101.3,182.9,102.2z"/>
	<path class="st12" d="M165.9,105.9c-0.3,0-0.3-0.3-0.3-0.5c0-1.1,0-2.3,0-3.4c0-0.2,0.3-0.4,0-0.5c-0.4-0.1-0.9-0.1-1.3,0
		c-0.2,0,0,0.3,0,0.4c0,1.5,0.1,3,0,4.4c0,0.5,0.1,0.5,0.4,0.5c1.2,0,2.4-0.1,3.6,0c1,0.1,1.2-0.2,1-1.1
		C168.2,106.1,167,105.9,165.9,105.9z"/>
	<path class="st10" d="M129.1,28.4c0,0.1-0.6,0.5-0.9,0.4c-0.3-0.1-0.1-0.5,0.1-0.7c0.3-0.4,0.1-0.9,0.1-1.3
		c-1.3,1.7-2.4,3.5-3.6,5.2c-0.1,0.1-0.3,0.3-0.1,0.4c0.2,0.2,0.4,0.1,0.6-0.1c1.5-1.4,3.1-2.8,4.6-4.2
		C129.7,28.3,129.1,27,129.1,28.4z"/>
	<path class="st9" d="M122.3,24.9c-0.3-0.2-0.1-0.5-0.1-0.8c-0.8,1.8-1.6,3.6-1.9,5.6c1.1-1.4,2.2-2.7,3.1-4.2
		c0.5-0.5,0.8-1,1.2-1.6c-0.5,0.3-0.9,0.7-1.6,0.7C122.7,24.5,122.6,25,122.3,24.9z M123.1,25.1c0.2,0,0.2,0.2,0.2,0.3l0,0l0,0l0,0
		C123.2,25.4,123,25.4,123.1,25.1C123,25.1,123.1,25.1,123.1,25.1z"/>
	<path class="st12" d="M171.7,104.1C171.7,104.1,171.8,104.1,171.7,104.1c0-0.8,0-1.6,0-2.3c0-0.7-0.5-0.3-0.7-0.3s-0.6-0.3-0.5,0.4
		c0.1,1.6,0.2,3.1,0,4.7c0,0.1-0.1,0.2,0,0.2c0.4,0,0.8,0.1,1.2,0s0.1-0.4,0.1-0.5C171.8,105.5,171.7,104.8,171.7,104.1z"/>
	<path class="st10" d="M130.4,29.9c-1.1,1.2-2.2,2.4-3.1,3.7c0,0.3,0,0.5,0.3,0.5c1.1-0.7,2.2-1.4,3.2-2.3l0,0c0-0.1,0-0.3,0-0.4
		c-0.3,0-0.7,0.1-1-0.1c0.5-0.8,0.5-0.8,1,0.1c0.2,0,0.3,0,0.4,0.2c0.5-0.3,1-0.5,1.4-1C131.7,30.8,130.9,30.8,130.4,29.9z"/>
	<path class="st14" d="M82.2,30.9c-0.3-0.3-0.5-0.6-1-0.6c-0.1,0.1-0.2,0.2-0.3,0.1c-0.1-0.2,0.1-0.2,0.3-0.3c0-0.1,0-0.3,0-0.4l0,0
		c-0.5,0.1-1,0-1.5-0.2c-0.3-0.1-0.6-0.2-0.8-0.3c-1-0.3-1.3,0.1-1.1,1.1c0.8-0.5,1.2-0.7,1.5-0.6c0.1,0,0.1,0.1,0.1,0.2
		c0,0,0,0.1,0.1,0.1c0,0.1,0.1,0.2,0.1,0.3c0,0.1,0,0.3,0,0.5c0,0.4,0,1.1,0.6,0.7c0.8-0.5,1.5-0.3,2.2,0.2c0.7,0.4,0.8,0.2,0.7-0.4
		c0,0,0-0.1-0.1-0.1C82.7,31.4,82.4,31.2,82.2,30.9z"/>
	<path class="st10" d="M116.2,24.1c-0.3-0.1-0.4-0.4-0.4-0.7c0-0.5,0-0.9,0-1.4c-0.5,1.9-0.7,3.9-0.8,5.9c0.1-0.3,0.3-0.5,0.5-0.8
		c0.5-1.2,1.2-2.2,1.3-3.5C116.7,23.8,116.7,24.3,116.2,24.1z"/>
	<path class="st9" d="M94.6,24.7c0.5,1-0.2,1-0.8,1c0.5,1,1.2,1.9,2,2.8c0.4,0,0.4-0.3,0.4-0.6c-0.4-1.4-0.9-2.8-1.6-4.1
		C94.6,24.1,94.5,24.5,94.6,24.7z"/>
	<path class="st3" d="M99.1,94.9c0.2,0,0.5,0.1,0.6-0.1c0.2-0.3,0.2-2.4-0.1-2.8c0,0.6,0,1.2,0,1.9c0.1,0.7-0.2,0.9-0.9,0.9
		c-2.4,0-4.9,0-7.3,0c-2,0-2,0-2-2.1c-0.1,0.6-0.1,1.1-0.2,1.7s0.1,0.7,0.6,0.7C93,94.9,96,94.9,99.1,94.9z"/>
	<path class="st5" d="M79.8,45.9c1.8,0.3,3.6,0.6,5.4,1v-0.1c-1.2-0.4-2.4-0.8-3.7-1.2C81.1,46.3,80.4,45.7,79.8,45.9z"/>
	<path class="st5" d="M133.1,60.2c-0.2-0.2-0.6-0.2-0.9-0.2c-0.6-0.1-1.1-0.2-1.7-0.3l0,0c0.7,0.5,1.6,0.8,2.5,0.7
		c0.2,0,1,0.6,0.9,0C133.7,59.8,133.1,60.2,133.1,60.2z"/>
	<path class="st11" d="M130.8,38c-0.7,0.4-1.2,0.9-1.8,1.4c0.9-0.3,1.7-0.5,2.5-1.1C131.2,38.4,130.9,38.5,130.8,38z"/>
	<path class="st11" d="M101.3,27c0.1,0.6,0.4,1.1,0.7,1.6c-0.1-0.8,0-1.6-0.4-2.3C101.6,26.5,101.8,26.9,101.3,27z"/>
	<path class="st11" d="M129.2,35.6c-0.6,0.5-1.1,1-1.7,1.5c0.8-0.2,1.6-0.5,2.3-1.1C129.5,36,129.3,36,129.2,35.6z"/>
	<path class="st13" d="M121,17.6c0-0.6,0-1.2,0-1.7c-0.1,0.2-0.2,0.4-0.4,0.7c-0.1,0.6-0.5,1.1-0.4,1.8
		C120.7,18.4,121,18.2,121,17.6z"/>
	<path class="st11" d="M127.3,33.6c-0.6,0.4-0.9,1.1-1.3,1.7c0.5-0.4,1.1-0.8,1.6-1.2C127.3,34,127.3,33.8,127.3,33.6z"/>
	<path class="st10" d="M95.8,28.5c0.3,0.5,0.7,1,1,1.6c0-0.8-0.2-1.5-0.6-2.2C96.1,28.2,96.2,28.5,95.8,28.5z"/>
	<path class="st5" d="M132.6,43.5c-0.6,0.2-1.2,0.4-1.7,0.8c1-0.2,2-0.2,2.9-0.5C133.4,43.7,132.8,44.3,132.6,43.5z"/>
	<path class="st7" d="M98.6,27.8c0.2,0.6,0.6,1.2,1,1.7c-0.3-0.8-0.3-1.6-0.7-2.4C98.9,27.4,99,27.7,98.6,27.8z"/>
	<path class="st10" d="M81.2,30.1c0,0.1,0,0.1,0,0.2c0.4,0,0.7,0.3,1,0.6c0.2,0.3,0.5,0.5,0.9,0.4c-0.5-0.7-1.2-1.3-1.9-1.8
		c0,0.1,0,0.2,0,0.3S81.2,30,81.2,30.1z"/>
	<path class="st5" d="M84.6,41.1c0.7,0.4,1.5,0.5,2.4,0.8c-0.7-0.5-1.2-0.9-1.8-1.1C85.1,41.2,84.8,41.1,84.6,41.1z"/>
	<path class="st4" d="M126.4,25.3c0.2,0,0.3-0.2,0.4-0.4c0.3-0.7-0.2-0.9-0.7-1.2l-0.1,0.1c0,0.3,0,0.6,0,1
		C126.1,25.1,126.1,25.3,126.4,25.3z"/>
	<path class="st6" d="M93.7,10.3c0-0.4-0.5-0.2-0.7-0.2s-0.4,0-0.6,0s-0.4,0-0.5,0.2c0.3,0.3,0.7,0.2,1.1,0.3
		C93.2,10.7,93.7,10.7,93.7,10.3z"/>
	<path class="st13" d="M83.9,24c-0.1-0.1-0.3-0.1-0.4-0.1s-0.2,0-0.2,0.1c-0.2,0.1-0.4,0.3-0.6,0.4c0,0.1,0,0.2,0.1,0.4
		c0.3,0.2,0.5,0.3,0.8,0.5C83.5,24.7,83.6,24.3,83.9,24z"/>
	<path class="st11" d="M91.3,32.1c0.5,0.4,0.8,1,1.5,1.2c-0.3-0.5-0.6-0.9-1-1.4C91.7,32.1,91.5,32.1,91.3,32.1z"/>
	<path class="st11" d="M92.8,33.2L92.8,33.2L92.8,33.2L92.8,33.2z"/>
	<path class="st11" d="M86.5,38.8c0.5,0.4,1,0.5,1.6,0.6c-0.4-0.3-0.9-0.6-1.3-1C86.7,38.6,86.6,38.7,86.5,38.8z"/>
	<path class="st10" d="M71.9,29.3c-0.3,0.4-0.5,0.7-0.6,1.2C72.6,30.6,72,29.8,71.9,29.3z"/>
	<path class="st4" d="M119.4,16.2c-0.1,0.2,0,0.3,0.1,0.4c0,0,0.1,0,0.1,0.1c0,0,0.1,0,0.2,0c0.1-0.1,0.2-0.3,0.4-0.4
		c0-0.1,0-0.3,0-0.4C119.9,16,119.6,15.8,119.4,16.2z"/>
	<path class="st8" d="M104.5,13.2c0,0.5,0.1,1,0.3,1.4C104.7,14.1,105.1,13.5,104.5,13.2z"/>
	<path class="st9" d="M86.8,25.2c0.1,0.3,0.4,0.1,0.7,0.2c0,0.4,0,0.8-0.5,0.9c-0.6,0.1-0.6-0.5-0.9-1c-0.1,1-1,0.5-1.3,0.8
		c2.1,2,4.3,4,6.6,5.9c0.2,0,0.4,0,0.5-0.2c-0.1-0.3-0.3-0.5-0.4-0.7c-1.2-2-2.5-3.9-3.9-5.8l0,0c0-0.3-0.2-0.5-0.4-0.6
		C87,24.9,86.8,25.1,86.8,25.2z"/>
	<path class="st4" d="M117,15.8c0.1-0.1,0.1-0.3,0.1-0.4c0-0.2-0.1-0.5,0-0.7c-0.1,0.4-0.2,0.7-0.4,1.1c0,0.1,0,0.3,0,0.4
		C116.8,16,116.9,15.9,117,15.8z"/>
	<path class="st7" d="M69.8,34.6c-0.2,0.3-0.3,0.6-0.3,1C70,35.5,69.7,35,69.8,34.6z"/>
	<path class="st11" d="M145,42.4c-0.3,0-0.6,0.1-0.8,0.3C144.5,42.7,144.9,42.9,145,42.4z"/>
	<path class="st10" d="M83.7,26.6c-0.1-0.3-0.3-0.5-0.6-0.6C83.1,26.4,83.3,26.6,83.7,26.6z"/>
	<path class="st6" d="M125.2,10.4c-0.2-0.2-0.4-0.4-0.7-0.3C124.6,10.5,124.9,10.4,125.2,10.4z"/>
	<path class="st6" d="M125.9,10.7c-0.1-0.2-0.3-0.3-0.6-0.3C125.4,10.8,125.5,10.9,125.9,10.7z"/>
	<path class="st10" d="M145,29.7c0-0.3-0.2-0.5-0.4-0.7C144.6,29.4,144.5,29.7,145,29.7z"/>
	<path class="st15" d="M129.8,91.9c0.3,0,0.7,0,1,0C130.5,91.7,130.2,91.7,129.8,91.9z"/>
	<path class="st9" d="M130.8,31.3c-0.5-0.9-0.6-0.9-1-0.1C130.1,31.4,130.5,31.3,130.8,31.3c0,0.1,0,0.3,0,0.4l0,0
		c0.2,0,0.3,0,0.4-0.2C131.1,31.3,131,31.3,130.8,31.3z"/>
	<path class="st9" d="M84.3,25.8c0-0.3-0.2-0.4-0.4-0.4C84,25.6,84.1,25.8,84.3,25.8c0,0.2,0.2,0.3,0.4,0.4
		C84.7,25.9,84.6,25.8,84.3,25.8z"/>
	<path class="st8" d="M86.3,13.2c-0.2,0-0.4,0.1-0.4,0.3C86.1,13.6,86.3,13.5,86.3,13.2z"/>
	<path class="st9" d="M140.6,22.6c0-0.2-0.1-0.4-0.4-0.4C140.3,22.5,140.4,22.6,140.6,22.6z"/>
	<path class="st7" d="M70.2,33.5C70,33.6,70,33.8,69.9,34C70.2,34,70.2,33.7,70.2,33.5z"/>
	<path class="st11" d="M92.8,33.2C92.8,33.2,92.8,33.3,92.8,33.2c0,0.1,0,0.1,0.1,0.2C92.9,33.3,92.9,33.3,92.8,33.2z"/>
	<path class="st10" d="M83.1,25.8c-0.1-0.1-0.2-0.2-0.3-0.3C82.8,25.6,82.9,25.7,83.1,25.8z"/>
	<path class="st8" d="M117.5,12.9c0-0.3-0.1-0.6,0-0.9c0-0.1,0-0.3-0.3-0.3c0,0.1,0,0.1,0,0.2c0,0.4-0.6,0.6-0.5,1l0,0
		c0.4,0.1,0.3,0.4,0.4,0.7C117.4,13.4,117.5,13.2,117.5,12.9z"/>
	<path class="st13" d="M100,12.2c-0.1-0.2-0.2-0.4-0.3-0.6l0,0c-0.1,0-0.1,0-0.2,0c-0.1,0.1-0.2,0.2-0.2,0.4c0,0.1,0,0.1,0,0.2
		c0.1,0.1,0.2,0.2,0.4,0.2l0,0c0.3,0,0.1,0.4,0.4,0.4C100.2,12.6,100.1,12.4,100,12.2z"/>
	<path class="st6" d="M122,11.1c0.1,0,0.2-0.2,0.2-0.3s0-0.3-0.2-0.3c0,0-0.1,0-0.1,0.1c-0.1,0.1-0.1,0.2-0.1,0.3
		C121.8,11,121.8,11.1,122,11.1z"/>
	<path class="st6" d="M123.7,11.6c0.1,0,0.2,0,0.3-0.1c0,0,0,0,0.1-0.1c0-0.2-0.1-0.2-0.2-0.2s-0.3,0.1-0.3,0.1
		C123.4,11.6,123.6,11.6,123.7,11.6z"/>
	<path class="st6" d="M118.3,11.6c0.1,0,0.3,0,0.2-0.2c0-0.1-0.1-0.1-0.2-0.2c-0.1,0.1-0.2,0.1-0.2,0.2
		C118.1,11.5,118.2,11.6,118.3,11.6z"/>
	<path class="st9" d="M136.3,22.6C136.4,22.6,136.4,22.6,136.3,22.6c0.2,0,0.3,0,0.3-0.2l0,0c0-0.1-0.1-0.2-0.2-0.2h-0.1
		c-0.1,0-0.3,0-0.3,0.2C136.1,22.6,136.2,22.6,136.3,22.6z"/>
	<path class="st9" d="M137.4,22.9c0-0.1,0.1-0.1,0.1-0.2l0,0c0,0-0.1,0-0.1-0.1l0,0l-0.1,0.1l0,0C137.2,22.9,137.3,22.9,137.4,22.9z
		"/>
	<path class="st9" d="M140.2,23.2C140.2,23.2,140.1,23.1,140.2,23.2c-0.3-0.1-0.3,0.1-0.3,0.2C140,23.4,140.2,23.4,140.2,23.2z"/>
	<path class="st9" d="M139.9,23.4L139.9,23.4L139.9,23.4z"/>
	<path class="st9" d="M135.9,23.4c-0.2,0.1-0.3,0.2-0.4,0.4c0.1,0,0.1,0,0.2,0C135.9,23.7,135.9,23.6,135.9,23.4z"/>
	<path class="st15" d="M132.4,20.5L132.4,20.5L132.4,20.5z"/>
	<path class="st16" d="M145.4,46.5c0.3-0.1,0.6-0.1,1-0.2C146,46,145.6,45.9,145.4,46.5z"/>
	<path class="st13" d="M123,17.5c-0.3,0-0.4,0.1-0.4,0.4c0,0.1,0,0.3,0.2,0.3s0.3-0.2,0.5-0.4C123.2,17.6,123.1,17.5,123,17.5z"/>
	<path class="st4" d="M118.5,16.8c-0.4,0.2-0.2,0.5-0.3,0.7C118.7,17.4,118.6,17.2,118.5,16.8z"/>
	<ellipse class="st4" cx="118.2" cy="17.5" rx="0" ry="0"/>
	<path class="st4" d="M130.1,16.6l-0.1-0.2c-0.3,0-0.3,0.1-0.3,0.3l0,0C129.8,16.7,130,16.8,130.1,16.6z"/>
	<path class="st4" d="M127.6,17.3C127.6,17.3,127.5,17.2,127.6,17.3c-0.3-0.1-0.3,0.1-0.3,0.2C127.4,17.5,127.6,17.5,127.6,17.3z"/>
	<path class="st4" d="M127.3,17.5L127.3,17.5L127.3,17.5z"/>
	<path class="st11" d="M146.1,42.9c0.1-0.1,0.3-0.1,0.4-0.2c0.3-0.1,0.6-0.3,0.1-0.8l0,0c-0.5,0.1-0.9,0.2-1.3,0.4
		C145.5,42.7,145.4,43.3,146.1,42.9z"/>
	<path class="st15" d="M146,37.3c0,0-0.1,0-0.1,0.1c0,0,0,0.1,0.1,0.1C145.9,37.4,146,37.3,146,37.3S146,37.2,146,37.3z"/>
	<path class="st13" d="M94.8,19.4c0.2-0.4,0.2-0.7-0.1-1.2C94.6,18.8,94.4,19.1,94.8,19.4z"/>
	<path class="st13" d="M94.1,18.3c-0.1-0.2-0.3-0.1-0.4,0c0,0-0.1,0-0.1,0.1c0,0,0,0-0.1,0l0,0c0,0,0,0-0.1,0c0,0.3,0.2,0.5,0.4,0.7
		C93.8,18.7,94.3,18.6,94.1,18.3z"/>
	<path class="st13" d="M94.2,19.5C94.2,19.5,94.2,19.4,94.2,19.5c0-0.2,0-0.2-0.1-0.3c0,0-0.1-0.1-0.2-0.1h-0.1
		c0,0.3,0.2,0.5,0.4,0.6v-0.1C94.2,19.6,94.2,19.5,94.2,19.5z"/>
	<path class="st13" d="M89.3,18.6c0,0,0.1-0.1,0.1-0.2l0,0l-0.1-0.1l0,0c0,0-0.1,0.1-0.1,0.2C89.2,18.6,89.3,18.6,89.3,18.6z"/>
	<path class="st13" d="M94.3,19.9L94.3,19.9c0,0.2,0.1,0.3,0.3,0.4c0-0.1,0-0.1,0-0.1C94.5,20,94.5,19.9,94.3,19.9z"/>
	<path class="st10" d="M74.9,30.5c-0.1-0.5-0.4-0.4-0.7-0.3C74.4,30.6,74.7,30.5,74.9,30.5c0.1,0.6,0.4,0.9,1,0.7
		c0.1,0,0.2-0.1,0.3-0.1c0,0,0.1,0,0.1-0.1c0.1-0.1,0.2-0.1,0.3-0.1h0.1c-0.2-0.3-0.5-0.5-0.8-0.6C75.6,30.5,75.2,30.5,74.9,30.5z"
		/>
	<path class="st10" d="M76.2,29.8c0,0-0.1,0-0.1,0.1c0,0,0,0-0.1,0.1c0,0.1-0.1,0.1-0.1,0.2l0,0c0.2,0,0.4,0,0.6,0
		C76.4,29.9,76.3,29.8,76.2,29.8z"/>
	<path class="st10" d="M79,30.6C79,30.6,78.9,30.6,79,30.6c-0.1,0.3,0.1,0.3,0.2,0.3C79.2,30.8,79.2,30.6,79,30.6z"/>
	<path class="st10" d="M140.4,29.4c0,0.1-0.1,0.1-0.1,0.2c0,0,0.1,0.1,0.2,0.1c0-0.1,0-0.1,0.1-0.2l0,0
		C140.5,29.4,140.5,29.4,140.4,29.4z"/>
	<path class="st9" d="M84.9,25.3C85,25.3,85,25.3,84.9,25.3c0.2-0.1,0.2-0.2,0.2-0.3c0-0.1,0-0.2-0.1-0.3h-0.1
		c-0.2,0-0.2,0.2-0.2,0.3C84.8,25.1,84.8,25.3,84.9,25.3z"/>
	<path class="st9" d="M85.8,25.1c0.1,0,0.1-0.1,0.1-0.2c-0.1-0.1-0.2-0.1-0.2-0.1c-0.1,0-0.1,0.1-0.1,0.2
		C85.6,25,85.6,25.1,85.8,25.1z"/>
	<path class="st13" d="M85.1,21.8L85.1,21.8c0-0.3-0.2-0.4-0.4-0.6c0,0.1,0,0.3,0,0.4C84.8,21.8,84.9,21.8,85.1,21.8z"/>
	<path class="st9" d="M78,22.9L78,22.9v-0.1l0,0c0,0-0.1,0-0.2,0.1c0,0.1,0,0.1,0.1,0.2C77.8,23,77.9,22.9,78,22.9z"/>
	<path class="st8" d="M82.1,19.4c0.2,0,0.2-0.1,0.2-0.3c-0.1,0-0.3,0-0.4,0C82,19.2,82.1,19.4,82.1,19.4z"/>
	<path class="st13" d="M85.4,22.2L85.4,22.2c-0.1-0.1-0.2-0.2-0.3-0.4v0.1C85.2,22.1,85.3,22.2,85.4,22.2z"/>
	<path class="st9" d="M81.4,23.1L81.4,23.1c0.1,0.1,0.1,0.2,0.2,0.3v-0.1C81.5,23.1,81.5,23.1,81.4,23.1z"/>
	<path class="st7" d="M142.1,35.9c0-0.2,0.1-0.3,0-0.4c0,0,0-0.1-0.1-0.1c0,0,0,0-0.1-0.1l-0.1-0.1c0-0.1,0-0.2,0-0.4l0,0
		c-0.3,0-0.5,0.2-0.7,0.4c0.2,0,0.4,0,0.7,0C141.9,35.5,141.7,35.8,142.1,35.9z"/>
	<path class="st7" d="M73.6,33.3c-0.2,0.1-0.2,0.2-0.2,0.4c0,0.1,0,0.1,0,0.2l0.1,0.1l0,0c0,0,0,0,0.1,0s0.2,0,0.2,0
		c-0.1-0.1-0.1-0.2-0.2-0.3c0.2,0,0.3-0.1,0.5-0.1C74.1,33.3,73.8,33.2,73.6,33.3z"/>
	<path class="st7" d="M72.9,35.8c0-0.1-0.1-0.2-0.1-0.2c-0.2,0-0.2,0.1-0.2,0.2c0,0.1,0.1,0.1,0.2,0.2
		C72.8,35.9,72.9,35.8,72.9,35.8z"/>
	<path class="st7" d="M70.5,35.2c0.1,0,0.1-0.1,0.3-0.1c-0.1-0.1-0.1-0.2-0.2-0.2s-0.2,0-0.2,0.1C70.2,35.1,70.3,35.2,70.5,35.2z"/>
	<path class="st7" d="M74.9,34.8L74.9,34.8c0.1,0,0.1,0,0.2,0l0,0c-0.2-0.2-0.4-0.4-0.6-0.4c0,0.1,0,0.1,0,0.1
		C74.6,34.8,74.7,34.8,74.9,34.8z"/>
	<path class="st7" d="M75.6,35.2c0.1,0,0.1,0,0.2,0c-0.1-0.2-0.3-0.3-0.5-0.3c0,0.1,0,0.1,0.1,0.2C75.4,35.2,75.5,35.2,75.6,35.2z"
		/>
	<path class="st8" d="M87.4,13.5c0.1,0,0.2-0.1,0.1-0.2c-0.1-0.2-0.3-0.1-0.5-0.2c0-0.1,0-0.3,0-0.4c-0.3,0-0.5,0.2-0.6,0.4
		c0.2,0,0.4,0,0.7,0C87.1,13.4,87.2,13.6,87.4,13.5z"/>
	<path class="st8" d="M88.9,14c0.1,0,0.1-0.1,0.1-0.1c0-0.1-0.1-0.1-0.1-0.3c-0.1,0.1-0.2,0.2-0.2,0.3C88.7,14,88.7,14.1,88.9,14z"
		/>
	<path class="st8" d="M99.3,13.6c-0.1,0-0.3,0-0.3,0.2c0,0,0,0.1,0.1,0.1C99.3,13.9,99.3,13.7,99.3,13.6c0.1,0,0.3,0,0.4,0l0,0
		c0-0.1,0-0.2,0-0.4C99.5,13.2,99.3,13.3,99.3,13.6z"/>
	<path class="st8" d="M108,12.1c0,0.4,0,0.8,0,1.2l0,0c0,0.4,0,0.8,0,1.2l0,0c0.3-1,0.2-2.1,0.3-3.2C107.8,11.4,108,11.8,108,12.1z"
		/>
	<path class="st4" d="M123.3,25.4c0-0.1,0-0.3-0.2-0.3c0,0-0.1,0-0.1,0.1C123,25.4,123.2,25.4,123.3,25.4z"/>
	<path class="st4" d="M123.3,25.4L123.3,25.4L123.3,25.4z"/>
	<path class="st9" d="M80.9,30.4c0.1,0.2,0.2,0.1,0.3-0.1c0-0.1,0-0.1,0-0.2C81,30.1,80.8,30.1,80.9,30.4z"/>
</g>
</svg>
