<?xml version="1.0" encoding="utf-8"?>
<!-- Generator: Adobe Illustrator 26.0.3, SVG Export Plug-In . SVG Version: 6.00 Build 0)  -->
<svg version="1.1" id="Layer_1" xmlns="http://www.w3.org/2000/svg" xmlns:xlink="http://www.w3.org/1999/xlink" x="0px" y="0px"
	 viewBox="0 0 226 63" style="enable-background:new 0 0 226 63;" xml:space="preserve">
<style type="text/css">
	.st0{fill:#1F73B7;}
	.st1{fill:#FEE807;}
	.st2{fill:#0D9748;}
</style>
<g>
	<g>
		<path class="st0" d="M96.2,25.5L96.2,25.5v2l0,0V28h10l-0.3,0.6c-0.8,1.4-1.7,2.6-2.9,3.5c-1.2,1.1-2.6,1.8-4.1,2.4
			c-1.5,0.5-3,0.9-4.6,0.9c-2.6,0-5.1-0.6-7.2-1.9c-2.3-1.3-4-3.1-5.3-5.4s-1.9-4.6-1.9-7.3s0.6-5.1,1.9-7.3c1.3-2.3,3-4,5.3-5.4
			c2.3-1.3,4.6-1.9,7.3-1.9c2.1,0,4.1,0.4,6,1.2c1.8,0.8,3.4,1.9,4.7,3.4l0.5-0.5l0,0l0.6-0.6l0,0l1.8-1.8c-3.8-4-8.3-6-13.8-6
			c-3.4,0-6.6,0.9-9.5,2.5s-5.2,4-6.9,6.8c-1.7,2.9-2.5,6-2.5,9.4c0,2.6,0.4,4.9,1.5,7.2c1,2.3,2.4,4.3,4.1,6c1.8,1.8,3.8,3.1,6,4.1
			c2.3,1,4.6,1.4,7.2,1.4c2.3,0,4.3-0.4,6.3-1.2s3.8-1.9,5.4-3.3c1.6-1.4,2.9-3.1,3.9-5.1c1-1.9,1.6-4.1,1.8-6.3H95.9v2.1
			C95.9,25.5,96.2,25.5,96.2,25.5z"/>
		<path class="st0" d="M135.9,7.7c-1.1-1.6-2.4-2.9-4.1-3.7c-0.6-0.3-1.3-0.5-1.9-0.6c-0.6-0.2-1.3-0.3-2-0.3
			C127.1,3,126.3,3,125.3,3h-8.5v36.1h4.3v-16h4.9c3.3,0,6.1-1,8.2-2.8s3.1-4.3,3.1-7.3C137.4,11.1,136.9,9.4,135.9,7.7z
			 M132.4,15.7c-0.4,0.9-1.1,1.6-1.8,2c-1.2,0.8-2.9,1.2-5.2,1.2h-4.2V7h3.7c1.4,0,2.5,0.1,3.1,0.1c0.6,0.1,1.3,0.3,2,0.6
			c0.6,0.3,1.2,0.6,1.7,1.2c0.4,0.5,0.9,1.1,1.1,1.8c0.3,0.8,0.4,1.5,0.4,2.3C133.1,14,132.8,14.8,132.4,15.7z"/>
		<path class="st0" d="M171.9,34L171.9,34l-1.8-2l0,0l-0.4-0.4c-1.4,1.3-2.9,2.3-4.6,2.9s-3.4,1.1-5.3,1.1c-2.6,0-5.1-0.6-7.2-1.9
			c-2.3-1.3-4-3.1-5.3-5.4c-1.3-2.3-1.9-4.6-1.9-7.3c0-2.6,0.6-5.1,1.9-7.3s3-4,5.3-5.4c2.3-1.3,4.6-1.9,7.2-1.9
			c1.7,0,3.4,0.3,5.1,0.9s3,1.4,4.3,2.6l0.4-0.5l0,0l0.5-0.6l0,0l1.7-2c-1.1-1-2.3-1.7-3.7-2.4c-1.3-0.6-2.7-1.2-4.2-1.5
			s-2.9-0.5-4.3-0.5c-3.3,0-6.6,0.9-9.4,2.5c-2.8,1.6-5.2,4-6.9,6.9s-2.5,6-2.5,9.4s0.9,6.6,2.5,9.5s4,5.2,6.9,6.9
			c2.9,1.7,6,2.5,9.5,2.5c4.8,0,9.1-1.7,12.8-5.1L171.9,34z"/>
	</g>
	<g>
		<g>
			<g>
				<g>
					<path class="st1" d="M46.8,9.9v0.9c0,0-0.1,0-0.1,0.1v-0.1c-0.1,0-0.1,0-0.2,0c-1.2,0.1-1.9,0.9-2.5,1.8
						c-1.4,1.6-2.2,3.6-3.3,5.3c-0.1,0.1-0.1,0.2-0.2,0.3c-0.5,0.8-1,1.5-1.8,2.3c-0.1,0-0.1,0.1-0.1,0.1c-1.5,1.8-2.7,4.1-4,6.1
						c-0.1,0.2-0.2,0.3-0.3,0.5c-0.5,0.9-1.1,1.6-1.7,2.4c-0.4,0.5-0.7,0.7-1,0.8l-0.1,0.1l0,0c-0.1,0-0.2,0-0.4,0
						c-3.8-0.3-7.1-1.9-9.6-4.6c-3.2-3.4-4.7-7.6-4.1-12.5c0.6-4.5,2.9-8,6.4-10.6c1.7-1.3,3.9-1.7,5.8-2.5h5.8
						c1.1,0.4,2.1,0.8,3.2,1.2C42.5,3,45.1,6,46.8,9.9z"/>
				</g>
			</g>
		</g>
		<path class="st2" d="M36.2,12.9c-3.9,5.2-3,8.8-3,8.8s3.3-0.4,6.4-4.8c2.6-3.5,3.4-8.1,3.4-8.1S39.3,8.7,36.2,12.9z"/>
		<path class="st2" d="M23.6,18.6c4,6.9,8.5,7.7,8.5,7.7s1.1-4-2.4-9.7c-2.8-4.6-7.5-7.8-7.5-7.8S20.5,13,23.6,18.6z"/>
		<path class="st2" d="M30.2,9.6c0.1,4.7,2.1,6.4,2.1,6.4s1.7-1.8,1.6-5.7c-0.1-3.2-1.7-6.2-1.7-6.2S30.2,5.8,30.2,9.6z"/>
	</g>
	<g>
		<path class="st0" d="M72.7,1.6l-0.9,0.3l0,0c-0.2,0.1-0.4,0.2-0.6,0.2l-0.6,0.2c-0.1,0-0.2,0.1-0.3,0.1c-0.4,0.1-0.6,0.3-0.9,0.8
			c-1.3,2.8-2.5,5.7-3.7,8.5c0,0.1-0.1,0.2-0.1,0.4c1-0.3,1.9-0.4,2.8-0.8c1.3-0.5,2.1-1.4,2.6-2.7c0.1-0.9,0.5-1.6,0.9-2.5
			c0.3-0.9,0.6-1.6,1.1-2.5l0,0l0.6-1.4C73.6,1.8,73.2,1.4,72.7,1.6z"/>
		<g>
			<path class="st0" d="M51,10.6c0.1-0.1,0.2-0.2,0.2-0.4L51,10.6z"/>
			<path class="st0" d="M48.5,14.5c-0.1,0.1-0.1,0.2-0.1,0.2l0.3-0.5C48.7,14.3,48.6,14.4,48.5,14.5z"/>
			<path class="st0" d="M50.4,11.5L50.4,11.5l0.5-1C50.7,10.9,50.5,11.2,50.4,11.5z"/>
			<path class="st0" d="M62.1,24.3c-0.6,0.1-1.2,0.1-1.8,0.2c-0.3,0-0.4,0.1-0.5,0.4c-2.1,4.9-4.4,10-6.7,14.9c0,0.1,0,0.1-0.1,0.2
				c0.2,0,0.3,0,0.4,0.1c0.6,0.1,1.3,0.2,1.9,0.2c0.1,0,0.2,0,0.2,0c0.3-0.1,0.5-0.1,0.8-0.2c1.4-0.5,2.4-1.5,3-3
				c1-2.5,1.9-4.8,2.9-7.3c0.4-1.2,1-2.4,1.4-3.5C64.3,25.2,63.5,24.2,62.1,24.3z"/>
			<path class="st0" d="M59.3,24.6c-1.3,0.1-2.5,0.2-3.7,0.4c-0.1,0-0.3,0.2-0.3,0.3c-2,4.1-4,8.3-6,12.4c-0.3,0.6-0.6,1.3-1,2
				c0.3,0,0.5,0.1,0.8,0.1c1,0.1,2,0.2,3,0.3c0.3,0,0.4-0.1,0.5-0.3c2.1-4.7,4.2-9.5,6.3-14.2C59.1,25.3,59.2,24.9,59.3,24.6z"/>
			<path class="st0" d="M54.9,25.1c-0.4,0.1-0.9,0.1-1.2,0.1c-1.6,0.1-2.8,1-3.5,2.4c-1.6,3-3.2,6.1-4.7,9.1
				c-0.2,0.4-0.3,0.9-0.4,1.3c-0.1,0.8,0.3,1.3,1.2,1.4c0.4,0.1,0.8,0.1,1.2,0.1c0.3,0.1,0.5-0.1,0.6-0.3c1.8-3.7,3.5-7.3,5.4-11
				C53.8,27.2,54.4,26.2,54.9,25.1z"/>
			<path class="st0" d="M68.2,11.7c-0.3,0-0.5,0-0.9,0.1c-0.5,0.1-1.2,0.3-1.7,0.4c-0.3,0.1-0.4,0.2-0.6,0.5
				c-1.3,2.9-2.5,5.7-3.8,8.6c-0.4,1-0.9,1.9-1.3,2.9c0.8-0.1,1.5-0.1,2.3-0.2c1.7-0.3,2.9-1.2,3.5-2.8c0.6-1.7,1.4-3.3,2-5.1
				c0.4-1.1,0.9-2,1.2-3C69.3,12.4,69,11.8,68.2,11.7z"/>
			<path class="st0" d="M50,27.5c0.1-0.3,0.2-0.6,0.3-1c0.1-0.5-0.3-1-0.9-1c-0.4,0-0.9,0.1-1.4,0.1c-0.3,0-0.5,0.2-0.6,0.4
				c-1.8,3.2-3.5,6.4-5.4,9.7c-0.5,1.1-1.2,2-1.7,3.1c0.4,0,0.8,0.1,1.1,0.1c0.9,0.2,1.5-0.1,2.3-0.5c0.6-0.4,1.2-1.1,1.5-1.7
				C46.8,33.6,48.5,30.6,50,27.5z"/>
			<path class="st0" d="M59.6,23.9c1.1-2.4,2.1-4.8,3.2-7.2c0.6-1.4,1.3-2.8,1.9-4.3c-1.2,0.3-2.3,0.5-3.3,0.8
				c-0.2,0.1-0.4,0.2-0.5,0.4c-1.6,3.2-3.1,6.6-4.7,9.9c-0.2,0.4-0.3,0.8-0.5,1.2c1.2-0.1,2.4-0.2,3.5-0.3
				C59.4,24.3,59.5,24.2,59.6,23.9z"/>
			<path class="st0" d="M47.3,25.8c-0.9,0.1-1.7,0.2-2.5,0.2c-0.3,0-0.4,0.1-0.5,0.3c-1.9,3.3-4,6.8-5.9,10.1
				c-0.4,0.6-0.8,1.3-1.2,2c0.9,0.1,1.7,0.1,2.5,0.2c0.3,0,0.4-0.1,0.5-0.3c2-3.8,4.1-7.4,6.2-11.1C46.6,26.9,47,26.4,47.3,25.8z"/>
			<path class="st0" d="M53.3,24.9c0.5,0,1.1-0.1,1.5-0.2c0.1,0,0.3-0.2,0.4-0.3c1.5-3.1,3-6.1,4.5-9.2c0.3-0.5,0.5-1.2,0.9-1.8
				c-0.6,0.1-1.2,0.2-1.7,0.4c-1.1,0.3-2,1-2.6,2c-1.3,2.4-2.6,4.8-3.8,7.3c-0.1,0.2-0.2,0.3-0.2,0.5C52.1,24.5,52.5,24.9,53.3,24.9
				z"/>
			<path class="st0" d="M52.5,22.7c0.6-1.3,1.3-2.5,1.9-3.8c0.5-1,1.1-1.9,1.5-2.9c0.2-0.3,0.4-0.8,0.1-1.1s-0.6-0.2-1.1-0.2
				c-0.3,0.1-0.8,0.2-1.1,0.2c-0.3,0.1-0.4,0.2-0.6,0.4c-1.6,3-3.3,6-4.9,9c-0.2,0.3-0.3,0.6-0.5,1.1c0.2,0,0.4,0,0.5,0
				C50.4,25.4,51.7,24.4,52.5,22.7z"/>
			<path class="st0" d="M44,26.2c-1.1,0-2,0.2-2.8,1c-0.3,0.3-0.6,0.8-1,1.2c-0.6,1.1-1.3,2.1-1.9,3.1c-1,1.5-1.9,3.1-2.8,4.6
				c-0.3,0.4-0.4,1.1-0.5,1.5c-0.1,0.5,0.2,0.8,0.6,0.9c0.2,0,0.4,0,0.8,0.1c0.3,0.1,0.4-0.1,0.6-0.3c1.8-3,3.7-6.1,5.4-9.1
				C42.9,28.1,43.4,27.2,44,26.2z"/>
			<path class="st0" d="M61.2,13c0.1,0,0.1,0,0.2,0c1.1-0.2,2.1-0.5,3.2-0.8c0.2,0,0.3-0.2,0.4-0.4c1-2.1,1.9-4.2,2.9-6.3
				c0.4-0.9,0.8-1.7,1.2-2.6C67.9,3.3,67,3.5,65.9,4c-0.2,0.1-0.3,0.2-0.4,0.4c-1.1,2.1-2.1,4.3-3.1,6.4C62,11.5,61.6,12.3,61.2,13z
				"/>
			<path class="st0" d="M40.1,28.2c0.2-0.3,0.3-0.5,0.3-0.9c0.1-0.5-0.2-0.8-0.6-0.8c-0.2,0-0.5,0.1-0.8,0.1s-0.5,0.1-0.6,0.4
				c-0.8,1.3-1.6,2.6-2.5,3.9c-1.5,2.4-3,4.7-4.5,7c1.1,0.3,2,0.2,2.8-0.5c0.3-0.3,0.6-0.6,1-1.1C36.7,33.6,38.5,31,40.1,28.2z"/>
			<path class="st0" d="M47.6,25.2c1.4-2.5,2.8-5.1,4.2-7.5c0.4-0.8,1-1.6,1.4-2.5c-0.9,0.2-1.6,0.3-2.5,0.5
				c-0.2,0.1-0.4,0.2-0.5,0.4c-1.5,2.5-2.9,4.9-4.4,7.4c-0.4,0.8-0.9,1.4-1.3,2.3c0.9-0.1,1.6-0.2,2.5-0.2
				C47.3,25.6,47.5,25.5,47.6,25.2z"/>
			<path class="st0" d="M60.3,8.2c-0.8,1.4-1.5,2.9-2.3,4.3c-0.4,0.8-0.1,1.2,0.8,1.2c0.5-0.1,1.1-0.2,1.5-0.3
				c0.2-0.1,0.4-0.2,0.4-0.3c1-1.9,1.9-3.9,2.9-5.9c0.4-1,0.9-1.8,1.4-2.8c-0.5,0.2-1.1,0.3-1.5,0.5c-1.2,0.4-2.1,1.2-2.7,2.3
				C60.8,7.4,60.5,7.7,60.3,8.2z"/>
			<path class="st0" d="M38.2,26.8c-0.6,0.1-1.2,0.1-1.7,0.2c-0.3,0-0.5,0.1-0.6,0.4c-1.8,2.8-3.7,5.6-5.5,8.4
				c-0.4,0.6-1,1.4-1.4,2.1c0.6,0.1,1.2,0.1,1.7,0.2c0.3,0,0.4-0.1,0.5-0.3c2.3-3.5,4.5-7.1,6.8-10.7C38.1,27,38.1,26.9,38.2,26.8z"
				/>
			<path class="st0" d="M53.8,14.7L53.8,14.7c0.6-0.1,1.4-0.2,2-0.4c0.9-0.3,1.6-1,2-1.8c1.1-1.9,2-3.9,3-5.8c0.1-0.2,0.1-0.5,0-0.6
				s-0.4-0.2-0.6-0.2c-0.5,0.1-1,0.3-1.4,0.4c-0.3,0-0.5,0.1-0.6,0.4c-0.8,1.5-1.6,2.9-2.4,4.4C55.1,12.3,54.5,13.6,53.8,14.7z"/>
			<path class="st0" d="M43,26c0.3,0,0.5-0.1,0.8-0.1s0.5-0.1,0.8-0.4c1.1-1.9,2.3-3.9,3.4-5.8c0.8-1.2,1.4-2.5,2.1-3.8
				c-1.6,0.2-2.8,0.8-3.5,2.1c-1.3,2.1-2.6,4.2-3.9,6.3c-0.1,0.2-0.3,0.5-0.3,0.8C42.1,25.7,42.4,26,43,26z"/>
			<path class="st0" d="M42.3,24.5c1.3-2.1,2.6-4.3,4-6.4c0.1-0.2,0.2-0.4,0.3-0.6c0.1-0.4-0.1-0.6-0.5-0.5c-0.3,0-0.6,0.1-1,0.2
				c-0.3,0.1-0.5,0.2-0.8,0.5c-1.4,2.1-2.8,4.4-4.2,6.6c-0.4,0.8-1,1.5-1.4,2.3c0.8-0.1,1.4-0.1,2-0.4C41.5,25.6,42,25.2,42.3,24.5z
				"/>
			<path class="st0" d="M35.8,27c-0.6,1-1.2,1.8-1.8,2.8c-0.2,0.3-0.3,0.5-0.5,0.9c-1.5,2.3-3,4.6-4.5,6.9c-0.2,0.2-0.3,0.3-0.6,0.3
				c-1-0.1-1.3-0.3-0.8-1.3s1.2-1.9,1.8-2.9s1.3-1.9,1.9-3c0,0,0.1-0.1,0.1-0.2l0,0l0.1-0.1c0.3-0.5,0.6-1,1.1-1.5
				c0.4-0.5,1-1.1,1.5-1.5l0.1-0.1c0.2-0.1,0.5-0.2,0.9-0.2C35.3,27,35.6,27,35.8,27z"/>
			<path class="st0" d="M50.6,15.6c1-0.2,1.7-0.4,2.6-0.6c0.1,0,0.2-0.2,0.3-0.3c0.5-1,1.1-1.9,1.6-2.9c1-1.7,1.9-3.4,2.9-5.2
				c0,0,0-0.1-0.1-0.1c-0.6,0.2-1.4,0.4-2,0.6c-0.4,0.1-0.6,0.3-0.9,0.6c-1.4,2.5-2.9,4.9-4.3,7.4C50.7,15.4,50.6,15.5,50.6,15.6z"
				/>
			<path class="st0" d="M44.4,17.2c-0.6,0.2-1.2,0.3-1.8,0.4c-0.3,0.1-0.5,0.2-0.6,0.4c-1.8,2.8-3.7,5.5-5.5,8.3
				c-0.1,0.1-0.1,0.2-0.2,0.3c0.6-0.1,1.2-0.1,1.8-0.2c0.3,0,0.4-0.1,0.6-0.3c1.4-2.3,2.9-4.5,4.3-6.7
				C43.4,18.7,43.8,18.1,44.4,17.2z"/>
			<path class="st0" d="M51.3,10.3c-0.1,0.1-0.1,0.2-0.2,0.4L49,14.2c-0.2,0.3-0.4,0.5-0.5,1c-0.1,0.2-0.1,0.5,0,0.6
				s0.4,0.2,0.6,0.1c0.3,0,0.5-0.1,0.9-0.2c0.3,0,0.4-0.2,0.5-0.4c1.5-2.5,2.9-5.1,4.4-7.5C55,7.7,55,7.6,55,7.5
				c-1.6,0.4-2.9,1.1-3.6,2.5c0,0.1-0.1,0.1-0.1,0.2l0,0C51.3,10.2,51.3,10.3,51.3,10.3z"/>
			<path class="st0" d="M44.9,16.9c1.5-0.2,2.7-0.9,3.4-2l0,0c0.1-0.1,0.1-0.2,0.1-0.2c0.1-0.1,0.1-0.2,0.2-0.3l1.6-2.7l0,0
				c0.2-0.3,0.4-0.6,0.5-1v-0.1c0.2-0.3,0.4-0.6,0.5-1c0.1-0.2,0.1-0.4,0-0.5S50.8,9,50.7,9c-0.3,0-0.6,0.1-1.1,0.4
				c-0.1,0.1-0.2,0.2-0.3,0.2c-1.5,2.5-3.1,4.8-4.6,7.3C44.9,16.8,44.9,16.9,44.9,16.9z"/>
			<path class="st0" d="M35.5,26.8c0.1,0,0.2,0,0.3,0c0.1-0.1,0.3-0.1,0.4-0.3c1.7-2.6,3.4-5.3,5.3-7.8c0.1-0.2,0.3-0.4,0.4-0.8
				c-1.4,0.1-2.4,0.8-3,1.8c-0.8,1.1-1.4,2-2.1,3.1c-0.6,1-1.3,1.9-1.9,2.9c-0.2,0.2-0.2,0.6-0.1,1C34.8,27,35.2,26.8,35.5,26.8z"/>
			<path class="st0" d="M42.3,17.5c0.6-0.2,1.3-0.3,1.9-0.4c0.2-0.1,0.4-0.2,0.5-0.4c1.1-1.7,2.3-3.4,3.3-5.2c0.4-0.8,1-1.4,1.4-2.1
				c0,0-0.1,0-0.1-0.1c-0.6,0.2-1.3,0.4-1.9,0.6c-0.1,0-0.2,0.2-0.3,0.3c-1.2,1.7-2.4,3.5-3.4,5.3C43.2,16.2,42.8,16.8,42.3,17.5z"
				/>
			<path class="st0" d="M40.7,17.9c0.3,0.1,1.3-0.2,1.5-0.5c1.3-1.9,2.6-3.9,3.9-5.9c0.3-0.4,0.5-0.9,0.9-1.3
				c-1.3,0.3-2.1,0.9-2.9,1.8c-1.1,1.6-2.1,3.1-3.2,4.7c-0.1,0.2-0.2,0.4-0.3,0.8C40.5,17.5,40.6,17.7,40.7,17.9z"/>
			<path class="st0" d="M51.4,10.1L51.4,10.1c0,0.1-0.1,0.1-0.1,0.1L51.4,10.1z"/>
			<path class="st0" d="M50.9,10.4L50.9,10.4C50.9,10.5,50.9,10.5,50.9,10.4z"/>
			<path class="st0" d="M48.3,14.8L48.3,14.8L48.3,14.8z"/>
		</g>
	</g>
	<g>
		<path class="st0" d="M24.2,54.6v0.3v0.2h3.2l-0.1,0.2c-0.2,0.4-0.5,0.9-1,1.2S25.4,57,25,57.3c-0.4,0.2-1,0.3-1.5,0.3
			c-0.9,0-1.6-0.2-2.4-0.6c-0.8-0.4-1.3-1-1.7-1.7c-0.4-0.8-0.6-1.5-0.6-2.4s0.2-1.6,0.6-2.4c0.4-0.8,1-1.3,1.7-1.7
			c0.8-0.4,1.5-0.6,2.4-0.6c0.6,0,1.3,0.1,1.9,0.4c0.6,0.2,1.1,0.6,1.5,1.1l0.2-0.2l0.2-0.2l0.6-0.5c-1.2-1.3-2.7-1.9-4.4-1.9
			c-1.1,0-2.1,0.3-3,0.8c-1,0.5-1.6,1.3-2.3,2.3c-0.6,1-0.8,1.9-0.8,3c0,0.9,0.2,1.6,0.4,2.4c0.3,0.8,0.8,1.4,1.3,1.9
			c0.5,0.5,1.2,1.1,1.9,1.3c0.8,0.3,1.5,0.4,2.4,0.4c0.8,0,1.4-0.1,2-0.4c0.6-0.2,1.2-0.6,1.7-1.1c0.5-0.4,1-1,1.3-1.6
			s0.5-1.3,0.6-2h-5.1L24.2,54.6L24.2,54.6z"/>
		<path class="st0" d="M33.3,51c-0.9,0.1-1.5,0.4-1.9,1.1v-1h-0.8v7.6h0.8h0.3h0.1h0.1v-4.6c0-0.5,0.1-0.9,0.3-1.2s0.5-0.5,1-0.5
			v-0.2v-0.3L33.3,51L33.3,51z"/>
		<path class="st0" d="M42.1,55.1L42.1,55.1c0-0.5-0.1-1-0.1-1.3c-0.1-0.3-0.2-0.8-0.4-1.1c-0.3-0.5-0.9-1.1-1.5-1.4
			c-0.6-0.3-1.3-0.5-1.9-0.5c-0.8,0-1.4,0.2-2,0.5s-1.1,0.9-1.4,1.4c-0.3,0.6-0.5,1.3-0.5,2c0,0.8,0.2,1.4,0.5,2
			c0.3,0.6,0.9,1.1,1.4,1.5c0.6,0.3,1.3,0.5,2,0.5c0.6,0,1.3-0.2,1.9-0.4c0.6-0.3,1.1-0.8,1.4-1.3l-0.6-0.4l-0.2-0.2l-0.2-0.1
			c-0.5,0.8-1.3,1.2-2.1,1.2c-0.6,0-1.3-0.2-1.7-0.6s-0.8-1-1-1.5c0,0,0-0.2,0-0.3C35.7,55.1,42.1,55.1,42.1,55.1z M35.8,53.9
			c0.2-0.5,0.5-0.9,1-1.2s0.9-0.4,1.4-0.4s1,0.1,1.4,0.4c0.4,0.2,0.8,0.6,1,1.1l0.1,0.1L35.8,53.9L35.8,53.9z"/>
		<path class="st0" d="M51.1,55.1L51.1,55.1c0-0.5-0.1-1-0.1-1.3c-0.1-0.3-0.2-0.8-0.4-1.1c-0.3-0.5-0.9-1.1-1.5-1.4
			c-0.6-0.3-1.3-0.5-1.9-0.5c-0.8,0-1.4,0.2-2,0.5c-0.6,0.3-1.1,0.9-1.4,1.4c-0.3,0.6-0.5,1.3-0.5,2c0,0.8,0.2,1.4,0.5,2
			s0.9,1.1,1.5,1.5c0.6,0.3,1.3,0.5,2,0.5c0.6,0,1.3-0.2,1.9-0.4c0.6-0.3,1.1-0.8,1.4-1.3l-0.8-0.4l-0.2-0.2l-0.2-0.1
			c-0.5,0.8-1.3,1.2-2.1,1.2c-0.6,0-1.3-0.2-1.7-0.6c-0.4-0.4-0.8-1-1-1.5c0,0,0-0.2,0-0.3C44.6,55.1,51.1,55.1,51.1,55.1z
			 M44.8,53.9c0.2-0.5,0.5-0.9,1-1.2c0.4-0.3,0.9-0.4,1.4-0.4s1,0.1,1.4,0.4c0.4,0.2,0.8,0.6,1,1.1l0.1,0.1L44.8,53.9L44.8,53.9z"/>
		<path class="st0" d="M57.4,51.3c-0.4-0.2-1-0.3-1.6-0.3c-1,0-1.8,0.3-2.4,1.1v-1h-0.8v7.6h0.8h0.3h0.2v-4.6c0-0.4,0.1-0.6,0.2-1
			c0.1-0.3,0.3-0.5,0.6-0.6c0.3-0.2,0.5-0.2,1-0.2s1,0.1,1.3,0.4c0.3,0.3,0.4,0.8,0.4,1.3v0.1v4.6h0.2h0.3h0.8V54v-0.1
			c0-0.5-0.1-1.1-0.3-1.5C58.2,51.9,57.8,51.6,57.4,51.3z"/>
		<path class="st0" d="M70.5,48.6c-0.3-0.5-0.8-1-1.3-1.2c-0.2-0.1-0.4-0.2-0.6-0.2c-0.2-0.1-0.4-0.1-0.6-0.1s-0.5,0-0.9,0h-2.8
			v11.7h1.4v-5.2h1.6c1.1,0,1.9-0.3,2.7-1c0.6-0.6,1.1-1.4,1.1-2.4C71,49.8,70.8,49.1,70.5,48.6z M69.4,51.2
			c-0.2,0.3-0.3,0.5-0.6,0.6c-0.4,0.2-1,0.4-1.6,0.4h-1.4v-3.9H67c0.4,0,0.8,0,1,0.1c0.2,0,0.4,0.1,0.6,0.2c0.2,0.1,0.4,0.2,0.5,0.4
			s0.3,0.3,0.3,0.5c0.1,0.2,0.1,0.4,0.1,0.6C69.6,50.6,69.5,51,69.4,51.2z"/>
		<path class="st0" d="M78.2,53c-0.3-0.6-0.9-1.1-1.4-1.4c-0.6-0.3-1.3-0.5-2-0.5c-0.8,0-1.4,0.2-2,0.5c-0.6,0.3-1.1,0.9-1.4,1.4
			c-0.3,0.6-0.5,1.3-0.5,2c0,0.8,0.2,1.4,0.5,2c0.3,0.6,0.9,1.1,1.4,1.4c0.6,0.3,1.3,0.5,2,0.5c0.8,0,1.4-0.2,2-0.5
			c0.6-0.3,1.1-0.9,1.4-1.4c0.3-0.6,0.5-1.3,0.5-2C78.8,54.3,78.5,53.5,78.2,53z M77.3,56c-0.1,0.3-0.3,0.6-0.5,0.9
			c-0.2,0.2-0.5,0.4-0.9,0.5c-0.3,0.1-0.6,0.2-1,0.2c-0.8,0-1.4-0.3-1.8-0.8c-0.5-0.5-0.8-1.2-0.8-1.9c0-0.8,0.2-1.4,0.8-1.9
			c0.5-0.5,1.2-0.8,1.8-0.8c0.3,0,0.6,0.1,1,0.2c0.3,0.1,0.6,0.3,0.9,0.5c0.2,0.2,0.4,0.5,0.5,0.9c0.1,0.3,0.2,0.6,0.2,1.1
			C77.4,55.4,77.4,55.7,77.3,56z"/>
		<path class="st0" d="M96.8,55.1L96.8,55.1c0-0.5-0.1-1-0.1-1.3c-0.1-0.3-0.2-0.8-0.4-1.1c-0.3-0.5-0.9-1.1-1.5-1.4
			c-0.6-0.3-1.3-0.5-1.9-0.5c-0.8,0-1.4,0.2-2,0.5s-1.1,0.9-1.4,1.4c-0.3,0.6-0.5,1.3-0.5,2c0,0.8,0.2,1.4,0.5,2s0.9,1.1,1.4,1.5
			c0.6,0.3,1.3,0.5,2,0.5c0.6,0,1.3-0.2,1.9-0.4c0.6-0.3,1.1-0.8,1.4-1.3l-0.6-0.4l-0.2-0.2l-0.2-0.1c-0.5,0.8-1.3,1.2-2.1,1.2
			c-0.6,0-1.3-0.2-1.7-0.6c-0.4-0.4-0.8-1-1-1.5c0,0,0-0.2,0-0.3C90.4,55.1,96.8,55.1,96.8,55.1z M90.5,53.9c0.2-0.5,0.5-0.9,1-1.2
			c0.4-0.3,0.9-0.4,1.4-0.4s1,0.1,1.4,0.4c0.4,0.2,0.8,0.6,1,1.1l0.1,0.1L90.5,53.9L90.5,53.9z"/>
		<path class="st0" d="M101,51c-0.9,0.1-1.5,0.4-1.9,1.1v-1h-0.8v7.6h0.8h0.3h0.1h0.1v-4.6c0-0.5,0.1-0.9,0.3-1.2
			c0.2-0.3,0.5-0.5,1-0.5v-0.2v-0.3L101,51L101,51z"/>
		<path class="st0" d="M123.9,53c-0.3-0.6-0.9-1.1-1.4-1.4c-0.6-0.3-1.3-0.5-2-0.5c-0.8,0-1.4,0.2-2,0.5s-1.1,0.9-1.4,1.4
			c-0.3,0.6-0.5,1.3-0.5,2c0,0.8,0.2,1.4,0.5,2s0.9,1.1,1.4,1.4c0.6,0.3,1.3,0.5,2,0.5c0.8,0,1.4-0.2,2-0.5s1.1-0.9,1.4-1.4
			c0.3-0.6,0.5-1.3,0.5-2S124.2,53.5,123.9,53z M122.9,56c-0.1,0.3-0.3,0.6-0.5,0.9c-0.3,0.2-0.5,0.4-0.9,0.5
			c-0.3,0.1-0.6,0.2-1,0.2c-0.8,0-1.4-0.3-1.8-0.8c-0.5-0.5-0.8-1.2-0.8-1.9c0-0.8,0.2-1.4,0.8-1.9c0.5-0.5,1.2-0.8,1.8-0.8
			c0.3,0,0.6,0.1,1,0.2c0.3,0.1,0.6,0.3,0.9,0.5c0.2,0.2,0.4,0.5,0.5,0.9c0.1,0.3,0.2,0.6,0.2,1.1C123,55.4,123,55.7,122.9,56z"/>
		<path class="st0" d="M135.6,51.4c-0.4-0.2-1-0.4-1.5-0.4s-1.1,0.1-1.5,0.4c-0.4,0.2-0.8,0.6-1.1,1.1c-0.1-0.3-0.3-0.5-0.6-0.8
			c-0.2-0.2-0.5-0.4-0.9-0.5c-0.4-0.1-0.6-0.2-1.1-0.2c-0.8,0-1.4,0.2-1.8,0.6v-0.5h-1.2l0,0v7.6h0.8h0.3h0.1h0.2v-4.6
			c0-0.5,0.2-1,0.4-1.3c0.3-0.3,0.8-0.5,1.2-0.5s0.9,0.1,1.2,0.4c0.3,0.3,0.4,0.8,0.4,1.2V54v4.7h0.2h0.3h0.8h0.3h0.2v-4.6
			c0-0.5,0.2-1,0.4-1.3c0.3-0.3,0.8-0.5,1.2-0.5c0.5,0,1,0.1,1.2,0.4c0.3,0.3,0.4,0.8,0.4,1.3v4.7h0.2h0.3h0.9V54
			c0-0.8-0.1-1.3-0.4-1.7C136.4,51.9,136.1,51.6,135.6,51.4z"/>
		<path class="st0" d="M146.7,52.9c-0.3-0.5-0.8-1.1-1.4-1.4c-0.6-0.3-1.3-0.5-2-0.5c-1.3,0-2.4,0.5-3.1,1.5v-1.4h-1.4v11.7h1.3
			v-5.5c0.9,1.1,1.9,1.5,3.1,1.5c0.8,0,1.4-0.2,1.9-0.5s1.1-0.9,1.4-1.4c0.3-0.6,0.5-1.3,0.5-2C147.2,54.2,147,53.5,146.7,52.9z
			 M145.7,56c-0.1,0.3-0.3,0.6-0.5,0.9c-0.2,0.2-0.5,0.4-0.9,0.5c-0.3,0.1-0.6,0.2-1,0.2c-0.4,0-1-0.1-1.3-0.3c-0.4-0.2-0.8-0.5-1-1
			c-0.2-0.4-0.3-0.9-0.3-1.3s0.1-1,0.3-1.3c0.2-0.4,0.5-0.8,1-1c0.4-0.2,0.9-0.3,1.3-0.3c0.3,0,0.6,0.1,1,0.2
			c0.3,0.1,0.6,0.3,0.9,0.5s0.4,0.5,0.5,0.9c0.1,0.3,0.2,0.6,0.2,1C145.9,55.4,145.8,55.7,145.7,56z"/>
		<path class="st0" d="M163.5,51.3c-0.4-0.2-1-0.3-1.6-0.3c-1,0-1.8,0.3-2.4,1.1v-1h-0.8v7.6h0.8l0,0l0,0h0.3l0,0h0.2v-4.6
			c0-0.4,0.1-0.6,0.2-1c0.1-0.4,0.3-0.5,0.6-0.6c0.3-0.2,0.5-0.2,1-0.2s1,0.1,1.3,0.4c0.3,0.3,0.4,0.8,0.4,1.3v0.1v4.6h0.2l0,0l0,0
			h0.3l0,0h0.8V54v-0.1c0-0.5-0.1-1.1-0.3-1.5C164.3,51.9,164,51.6,163.5,51.3z"/>
		<polygon class="st0" points="172.7,51.2 172.4,51.2 171.5,51.2 169.4,56.1 169.3,55.7 169.3,55.7 167.3,51.2 167,51.2 166.7,51.2 
			165.8,51.2 168.6,57.8 166.6,62.8 167.4,62.8 167.8,62.8 168,62.8 173,51.2 		"/>
		<polygon class="st0" points="87.7,51.2 87.5,51.2 86,55.3 84.4,51.2 84.1,51.2 83.5,51.2 83.3,51.2 81.8,55.3 80.3,51.2 
			79.9,51.2 79.7,51.2 78.8,51.2 81.8,59.1 83.8,53.4 86,59.1 88.9,51.2 88,51.2 		"/>
		<path class="st0" d="M115.1,56.8l-0.1-0.2l-0.2-0.2c-0.4,0.4-1,0.8-1.5,1s-1.1,0.3-1.7,0.3c-0.9,0-1.6-0.2-2.4-0.6
			c-0.8-0.4-1.3-1-1.7-1.7s-0.6-1.5-0.6-2.4s0.2-1.6,0.6-2.4c0.4-0.8,1-1.3,1.7-1.7c0.8-0.4,1.5-0.6,2.4-0.6c0.5,0,1.1,0.1,1.6,0.3
			s1,0.4,1.4,0.9l0.3-0.4l0.5-0.6c-0.3-0.3-0.8-0.5-1.2-0.8c-0.4-0.2-0.9-0.3-1.4-0.4c-0.4-0.1-1-0.2-1.4-0.2c-1.1,0-2.1,0.3-3,0.9
			c-1,0.5-1.6,1.3-2.3,2.3c-0.5,1-0.9,1.9-0.9,3s0.3,2.1,0.8,3c0.5,1,1.3,1.6,2.3,2.3c1,0.5,1.9,0.9,3,0.9c1.6,0,3-0.5,4.1-1.6
			L115.1,56.8z"/>
		<path class="st0" d="M155.5,51.2v1.4c-0.4-0.5-0.9-0.9-1.4-1.2s-1.2-0.4-1.7-0.4c-0.8,0-1.4,0.2-2,0.5s-1.1,0.9-1.4,1.4
			c-0.3,0.6-0.5,1.3-0.5,2c0,0.8,0.2,1.4,0.5,2c0.3,0.6,0.9,1.1,1.4,1.4c0.6,0.3,1.3,0.5,2,0.5c1.3,0,2.4-0.5,3.1-1.5v1.4h1.4v-7.6
			L155.5,51.2L155.5,51.2z M154.8,56c-0.1,0.3-0.3,0.6-0.5,0.9c-0.2,0.2-0.5,0.4-0.9,0.5c-0.3,0.1-0.6,0.2-1.1,0.2
			c-0.8,0-1.4-0.3-1.8-0.8c-0.5-0.5-0.8-1.2-0.8-1.9c0-0.8,0.2-1.4,0.8-1.9c0.5-0.5,1.2-0.8,1.8-0.8c0.3,0,0.6,0.1,1.1,0.2
			c0.3,0.1,0.6,0.3,0.9,0.5c0.2,0.2,0.4,0.5,0.5,0.9c0.1,0.3,0.2,0.6,0.2,1C155,55.4,154.9,55.7,154.8,56z"/>
	</g>
</g>
</svg>
